<?xml version="1.0" encoding="UTF-8" standalone="no"?>
<!DOCTYPE svg PUBLIC "-//W3C//DTD SVG 1.1//EN" "http://www.w3.org/Graphics/SVG/1.1/DTD/svg11.dtd">
<!-- Created with Vectornator (http://vectornator.io/) -->
<svg height="100%" stroke-miterlimit="10" style="fill-rule:nonzero;clip-rule:evenodd;stroke-linecap:round;stroke-linejoin:round;" version="1.1" viewBox="0 0 3370.82 2384.24" width="100%" xml:space="preserve" xmlns="http://www.w3.org/2000/svg" xmlns:vectornator="http://vectornator.io" xmlns:xlink="http://www.w3.org/1999/xlink">
<defs/>
<g id="Layer-2" vectornator:layerName="Layer 2">
<path d="M2186.92 1391.49C2192.45 1399.79 2193.05 1410.51 2195.14 1420.26C2195.59 1422.38 2197.2 1424.26 2197.2 1426.43C2197.2 1427.96 2195.54 1423.8 2195.14 1422.32C2193.48 1416.23 2191.81 1410.09 2191.03 1403.82C2189.84 1394.3 2189.97 1384.58 2191.03 1375.05C2191.2 1373.52 2191.89 1369.98 2193.09 1370.94C2203.81 1379.52 2211.83 1403.49 2213.64 1416.15C2214.12 1419.54 2216.89 1425.35 2213.64 1426.43C2209.28 1427.88 2204.98 1423.02 2201.31 1420.26C2199.33 1418.78 2198.23 1416.34 2197.2 1414.1C2194.1 1407.4 2190.85 1400.68 2188.97 1393.54C2187.4 1387.54 2186.92 1381.25 2186.92 1375.05C2186.92 1371.55 2186.79 1367.5 2188.97 1364.77C2190.26 1363.16 2193.3 1363.85 2195.14 1364.77C2196.51 1365.45 2196.26 1367.67 2197.2 1368.88C2201.07 1373.87 2206.18 1377.91 2209.53 1383.27C2213.1 1388.99 2215.74 1395.33 2217.75 1401.77C2219.19 1406.39 2219.32 1411.33 2219.81 1416.15C2220.01 1418.2 2221.26 1420.87 2219.81 1422.32C2213.67 1428.46 2207.39 1413.04 2203.36 1405.88C2196.04 1392.85 2191.03 1381.22 2186.92 1366.82C2185.96 1363.47 2181.37 1356.55 2184.86 1356.55C2189.71 1356.55 2191.95 1363.18 2195.14 1366.82C2196.77 1368.68 2197.88 1370.94 2199.25 1372.99C2203.36 1379.16 2207.37 1385.4 2211.58 1391.49C2215.26 1396.8 2218.97 1402.15 2221.86 1407.93C2222.55 1409.3 2220.72 1405.05 2219.81 1403.82C2216.59 1399.54 2212.92 1395.63 2209.53 1391.49C2201.06 1381.13 2200.55 1380.61 2193.09 1368.88C2190.94 1365.51 2188.71 1362.18 2186.92 1358.6C2185.95 1356.67 2182.7 1352.44 2184.86 1352.44C2188.29 1352.44 2190.81 1356.04 2193.09 1358.6C2196.37 1362.3 2198.34 1366.98 2201.31 1370.94C2206.32 1377.63 2211.63 1384.18 2215.69 1391.49C2217.63 1394.98 2219.92 1398.27 2221.86 1401.77C2223.35 1404.44 2229.04 1409.99 2225.97 1409.99C2222.1 1409.99 2220.49 1404.51 2217.75 1401.77C2211.45 1395.47 2206.63 1391.97 2203.36 1383.27C2202.64 1381.34 2201.65 1378.24 2203.36 1377.1C2206.37 1375.1 2216.52 1384.76 2221.86 1389.43C2235.14 1401.06 2252.35 1414.33 2262.97 1428.49C2266.1 1432.66 2270.57 1437.86 2269.13 1442.87C2268.19 1446.17 2262.15 1443.81 2258.86 1442.87C2256.99 1442.34 2256.05 1440.2 2254.75 1438.76C2249.2 1432.66 2243.46 1426.71 2238.3 1420.26C2227.85 1407.2 2217.96 1393.6 2209.53 1379.16C2208.44 1377.29 2205.37 1373.52 2207.47 1372.99C2213.7 1371.43 2220.46 1379.81 2223.92 1383.27C2228.71 1388.06 2233.51 1392.86 2238.3 1397.65C2246.52 1405.88 2254.54 1414.31 2262.97 1422.32C2272.46 1431.33 2285.01 1437.82 2291.74 1449.04C2292.86 1450.9 2287.47 1448.04 2285.58 1446.98C2281.26 1444.58 2277.1 1441.85 2273.24 1438.76C2266.8 1433.61 2260.77 1427.96 2254.75 1422.32C2249.8 1417.68 2245.15 1412.73 2240.36 1407.93C2236.25 1403.82 2230.63 1400.8 2228.03 1395.6C2227.11 1393.76 2232.24 1394.95 2234.19 1395.6C2236.54 1396.38 2238.42 1398.18 2240.36 1399.71C2248.02 1405.73 2255.28 1412.23 2262.97 1418.21C2272.72 1425.79 2283.52 1431.91 2293.8 1438.76C2296.65 1440.66 2300.94 1441.68 2302.02 1444.93C2302.67 1446.88 2297.69 1445.85 2295.85 1444.93C2291.93 1442.97 2289.09 1439.34 2285.58 1436.71C2276.4 1429.82 2263.37 1421.39 2254.75 1414.1C2251.05 1410.97 2242.94 1408.42 2244.47 1403.82C2245.84 1399.71 2253.09 1405.7 2256.8 1407.93C2261.39 1410.68 2264.75 1415.14 2269.13 1418.21C2278.79 1424.97 2288.38 1431.83 2297.91 1438.76C2301.46 1441.34 2307.12 1442.73 2308.19 1446.98C2308.85 1449.64 2302.47 1448.1 2299.96 1446.98C2295.96 1445.2 2293.16 1441.44 2289.69 1438.76C2284.26 1434.59 2278.68 1430.61 2273.24 1426.43C2269.1 1423.24 2256.8 1415.12 2256.8 1407.93C2256.8 1405.77 2260.88 1405.28 2262.97 1405.88C2266.26 1406.82 2268.56 1409.85 2271.19 1412.04C2280.89 1420.13 2291.03 1427.77 2299.96 1436.71C2304.43 1441.17 2313.54 1444.9 2312.3 1451.09C2311.32 1455.99 2302.49 1448.95 2297.91 1446.98C2292.83 1444.81 2288.03 1441.95 2283.52 1438.76C2276.35 1433.7 2269.57 1428.1 2262.97 1422.32C2258.59 1418.49 2253.86 1414.82 2250.64 1409.99C2248.23 1406.38 2244.92 1401.68 2246.52 1397.65C2247.57 1395.03 2252.07 1398.82 2254.75 1399.71C2258.25 1400.88 2261.88 1401.89 2265.02 1403.82C2280.94 1413.62 2297.82 1426.92 2312.3 1438.76C2316.7 1442.37 2322.7 1448.92 2320.52 1451.09C2318.58 1453.03 2314.97 1451.69 2312.3 1451.09C2308.7 1450.29 2305.41 1448.44 2302.02 1446.98C2295.82 1444.33 2289.49 1441.92 2283.52 1438.76C2266.06 1429.52 2250.08 1417.65 2236.25 1403.82C2232.82 1400.4 2229.4 1396.97 2225.97 1393.54C2224.6 1392.17 2220.02 1388.82 2221.86 1389.43C2233.95 1393.46 2246.43 1405.37 2256.8 1412.04C2267.68 1419.03 2278.93 1425.43 2289.69 1432.6C2293.8 1435.34 2297.97 1437.98 2302.02 1440.82C2304.83 1442.78 2308.71 1443.92 2310.24 1446.98C2311.84 1450.19 2295.06 1449.04 2293.8 1449.04C2291.2 1449.04 2274.19 1456.48 2273.24 1459.32C2272.76 1460.77 2275.85 1461.67 2277.36 1461.37C2279.78 1460.89 2281.25 1458.23 2283.52 1457.26C2289.03 1454.9 2297.91 1454.5 2297.91 1455.21C2297.91 1458.11 2294.07 1459.63 2291.74 1461.37C2288.55 1463.77 2284.84 1465.39 2281.47 1467.54C2272.15 1473.47 2262.72 1479.35 2252.69 1483.98C2249.34 1485.53 2243.58 1491.59 2242.41 1488.09C2241.03 1483.93 2247.78 1481.15 2250.64 1477.81C2257.59 1469.7 2271.34 1466.46 2281.47 1463.43C2284.81 1462.42 2289.81 1458.46 2291.74 1461.37C2293.64 1464.22 2288 1467.17 2285.58 1469.59C2283.15 1472.02 2280.21 1473.86 2277.36 1475.76C2267.08 1482.61 2256.7 1489.32 2246.52 1496.31C2240.42 1500.51 2234.19 1504.53 2228.03 1508.65C2225.97 1510.02 2220.49 1514.81 2221.86 1512.76C2232.19 1497.26 2251.61 1484.78 2267.08 1475.76C2270.53 1473.75 2273.36 1469.59 2277.36 1469.59C2279.52 1469.59 2276.83 1474.23 2275.3 1475.76C2273.13 1477.93 2269.63 1478.17 2267.08 1479.87C2263.43 1482.3 2260.23 1485.35 2256.8 1488.09C2240.17 1501.39 2222.49 1514.18 2207.47 1529.2C2206.39 1530.28 2210.21 1527.83 2211.58 1527.14C2215.69 1525.09 2220 1523.39 2223.92 1520.98C2228.94 1517.89 2233.54 1514.17 2238.3 1510.7C2241.07 1508.69 2243.82 1506.64 2246.52 1504.53C2249.99 1501.84 2254.84 1500.24 2256.8 1496.31C2258.17 1493.57 2251.18 1498.8 2248.58 1500.42C2241.49 1504.86 2235.08 1510.32 2228.03 1514.81C2213.46 1524.08 2200.12 1534.47 2186.92 1545.64C2182.1 1549.72 2177.23 1553.75 2172.53 1557.97C2170.37 1559.92 2164.31 1566.2 2166.37 1564.14C2175.78 1554.73 2184.6 1545.74 2193.09 1535.37C2194.61 1533.5 2200.82 1523.03 2205.42 1523.03C2206.95 1523.03 2204.05 1525.77 2203.36 1527.14C2202.68 1528.51 2202.29 1530.08 2201.31 1531.25C2196.34 1537.21 2190.63 1542.51 2184.86 1547.7C2176.94 1554.83 2168.65 1561.78 2162.25 1570.31C2159.04 1574.59 2155.5 1578.61 2151.98 1582.64C2149.72 1585.22 2148.88 1589.33 2145.81 1590.86C2143.87 1591.83 2146.79 1586.58 2147.87 1584.69C2149.57 1581.72 2152.07 1579.28 2154.03 1576.47C2158.85 1569.59 2166.19 1553.95 2174.59 1549.75C2175.96 1549.07 2173.49 1552.67 2172.53 1553.86C2170.72 1556.13 2168.42 1557.97 2166.37 1560.03C2164.31 1562.09 2162.11 1564.01 2160.2 1566.2C2154.13 1573.13 2147.87 1579.9 2141.7 1586.75C2137.48 1591.44 2134.78 1597.89 2129.37 1601.14C2127.51 1602.25 2123.89 1605.25 2123.2 1603.19C2122.52 1601.15 2130.92 1588.8 2133.48 1588.8C2135.65 1588.8 2132.5 1593.09 2131.42 1594.97C2129.72 1597.95 2127.36 1600.49 2125.26 1603.19C2119.87 1610.12 2113.91 1616.61 2108.81 1623.75C2107.92 1624.99 2106.76 1627.86 2106.76 1627.86C2106.76 1627.86 2110.93 1622.42 2112.93 1619.64C2115.25 1616.38 2117.04 1612.78 2119.09 1609.36C2123.51 1602 2127.58 1594.43 2131.42 1586.75C2132.11 1585.38 2133.48 1582.64 2133.48 1582.64C2133.48 1582.64 2128.07 1589.55 2125.26 1592.92C2121.48 1597.44 2118.25 1602.4 2114.98 1607.3C2114.13 1608.58 2113.23 1612.92 2112.93 1611.41C2109.07 1592.16 2119.47 1567.11 2125.26 1549.75C2131.61 1530.71 2139.16 1512.39 2147.87 1494.26C2150.92 1487.9 2153.55 1481.11 2158.14 1475.76C2159.14 1474.6 2160.2 1478.34 2160.2 1479.87C2160.2 1481.4 2158.75 1482.57 2158.14 1483.98C2156.69 1487.37 2155.12 1490.73 2154.03 1494.26C2152.37 1499.66 2151.38 1505.24 2149.92 1510.7C2145.06 1528.94 2138.99 1546.84 2131.42 1564.14C2129.58 1568.35 2129.62 1575.02 2125.26 1576.47C2122.01 1577.56 2125.01 1569.61 2125.26 1566.2C2125.7 1560.01 2126 1553.76 2127.31 1547.7C2129.43 1537.95 2132.6 1528.46 2135.53 1518.92C2144.43 1490.01 2151.4 1460.82 2162.25 1432.6C2165.34 1424.58 2169.98 1417.23 2174.59 1409.99C2175.91 1407.9 2178.7 1401.35 2178.7 1403.82C2178.7 1406.89 2175.96 1409.3 2174.59 1412.04C2172.36 1416.5 2171.03 1421.47 2170.48 1426.43C2168.54 1443.82 2165.35 1461.06 2160.2 1477.81C2157.9 1485.28 2158.05 1493.73 2154.03 1500.42C2151.92 1503.95 2153.52 1492.17 2154.03 1488.09C2154.22 1486.57 2155.67 1485.45 2156.09 1483.98C2158.42 1475.83 2160.28 1467.56 2162.25 1459.32C2167.34 1438.14 2171.2 1416.68 2176.64 1395.6C2178.97 1386.58 2181.13 1377.42 2184.86 1368.88C2186.03 1366.22 2191.03 1359.81 2191.03 1362.71C2191.03 1372.03 2185.26 1380.44 2182.81 1389.43C2176.75 1411.64 2174.71 1432.32 2172.53 1455.21C2172.07 1460.03 2171.87 1464.95 2170.48 1469.59C2169.77 1471.96 2167.04 1478.13 2166.37 1475.76C2162.78 1463.23 2167.18 1449.68 2168.42 1436.71C2169.79 1422.32 2169.03 1407.57 2172.53 1393.54C2173.8 1388.48 2175.01 1382.85 2178.7 1379.16C2179.54 1378.31 2184.28 1383.59 2184.86 1389.43C2185.34 1394.21 2184.86 1399.03 2184.86 1403.82C2184.86 1409.99 2185.09 1416.16 2184.86 1422.32C2184.41 1434.66 2184.39 1447.07 2182.81 1459.32C2181.64 1468.38 2178.33 1477.05 2176.64 1486.04C2174.92 1495.2 2172 1504.15 2168.42 1512.76C2167.83 1514.17 2166.67 1518.37 2166.37 1516.87C2165.42 1512.16 2165.93 1507.26 2166.37 1502.48C2167.3 1492.15 2167.78 1481.66 2170.48 1471.65C2174.13 1458.09 2183.62 1443.01 2193.09 1432.6C2195.39 1430.06 2197.95 1425.76 2201.31 1426.43C2204.86 1427.14 2202.05 1452.96 2201.31 1455.21C2191.56 1484.45 2176.47 1513.45 2160.2 1539.48C2156.57 1545.29 2154.37 1553.75 2147.87 1555.92C2143.97 1557.22 2147.13 1547.63 2147.87 1543.59C2148.53 1539.96 2150.52 1536.7 2151.98 1533.31C2156.69 1522.31 2160.64 1510.93 2166.37 1500.42C2179.86 1475.69 2192.1 1458.56 2213.64 1440.82C2216.49 1438.47 2220.37 1437.72 2223.92 1436.71C2225.23 1436.33 2228.16 1435.34 2228.03 1436.71C2225.19 1465.04 2202.7 1496.48 2184.86 1516.87C2176.57 1526.35 2167.33 1534.97 2158.14 1543.59C2156.34 1545.28 2152.9 1549.99 2151.98 1547.7C2150.18 1543.2 2152.01 1537.71 2154.03 1533.31C2159.66 1521.03 2167.28 1509.74 2174.59 1498.37C2187.68 1478 2196.56 1467.48 2217.75 1455.21C2222.82 1452.27 2228.55 1450.58 2234.19 1449.04C2236.18 1448.5 2240.07 1447 2240.36 1449.04C2241.06 1453.98 2237.95 1458.74 2236.25 1463.43C2235.2 1466.31 2233.74 1469.04 2232.14 1471.65C2228.25 1477.96 2224.2 1484.18 2219.81 1490.15C2214.6 1497.21 2209.01 1503.98 2203.36 1510.7C2194.62 1521.11 2186.46 1532.12 2176.64 1541.53C2169.91 1547.98 2163.35 1557.97 2154.03 1557.97C2148.38 1557.97 2156.52 1546.94 2158.14 1541.53C2158.58 1540.06 2159.33 1538.68 2160.2 1537.42C2177.51 1512.42 2195.98 1486.47 2221.86 1469.59C2230.33 1464.07 2239.34 1459.31 2248.58 1455.21C2251.77 1453.79 2257.06 1450.15 2258.86 1453.15C2261.09 1456.87 2256.98 1461.77 2254.75 1465.48C2250.73 1472.18 2245.44 1478.05 2240.36 1483.98C2223.66 1503.46 2203.38 1522.18 2182.81 1537.42C2172.88 1544.77 2162.1 1550.89 2151.98 1557.97C2148.38 1560.49 2145.27 1563.65 2141.7 1566.2C2140.45 1567.09 2136.99 1569.66 2137.59 1568.25C2140.14 1562.31 2144.5 1557.32 2147.87 1551.81C2168.67 1517.76 2195.1 1493.11 2228.03 1469.59C2238.56 1462.07 2255.01 1453.15 2269.13 1453.15C2271.6 1453.15 2275.03 1454.81 2275.3 1457.26C2275.85 1462.22 2273.79 1467.39 2271.19 1471.65C2266.11 1479.96 2259.21 1487.02 2252.69 1494.26C2234.49 1514.48 2211.29 1534.8 2186.92 1547.7C2181.75 1550.44 2175.96 1555.92 2170.48 1553.86C2166.63 1552.42 2169.42 1545.5 2170.48 1541.53C2172.21 1535.01 2175.15 1528.77 2178.7 1523.03C2184.11 1514.29 2190.69 1506.32 2197.2 1498.37C2215.04 1476.56 2234.87 1463.57 2260.91 1453.15C2264.94 1451.54 2269 1448.19 2273.24 1449.04C2275.37 1449.46 2272.54 1453.51 2271.19 1455.21C2270.29 1456.33 2259.61 1464.18 2256.8 1461.37C2248.15 1452.72 2263.05 1435.54 2242.41 1432.6C2240.38 1432.31 2237.7 1431.14 2236.25 1432.6C2235.16 1433.68 2238.99 1433.97 2240.36 1434.65C2243.1 1436.02 2246.03 1437.06 2248.58 1438.76C2252.23 1441.2 2255.21 1444.55 2258.86 1446.98" fill="none" opacity="0.844932" stroke="#908d7f" stroke-linecap="round" stroke-linejoin="round" stroke-width="20.2444"/>
</g>
<g id="Layer-1" vectornator:layerName="Layer 1">
<path d="M324.749 150.042C322.089 149.386 318.979 148.817 316.528 150.042C315.302 150.655 316.679 152.791 316.528 154.153C315.993 158.968 314.875 163.713 314.472 168.541C313.618 178.797 315.642 186.687 316.528 197.316C320.417 243.99 322.47 290.488 326.805 337.082C333.758 411.834 342.593 486.555 351.469 561.117C355.303 593.325 357.02 623.368 361.746 655.665C369.66 709.745 379.615 763.525 384.355 818.039C390.976 894.183 393.707 971.775 390.521 1048.24C389.322 1077.02 387.096 1105.77 386.411 1134.57C385.758 1161.96 387.048 1189.38 386.411 1216.78C384.418 1302.45 382.3 1387.98 382.3 1473.7C382.3 1521.07 384.355 1568.19 384.355 1615.52C384.355 1625.72 378.97 1649.47 392.577 1654.58C411.777 1661.78 441.415 1655 460.404 1652.52C491.991 1648.4 525.213 1649.32 557.007 1648.41C567.964 1648.1 578.944 1648.96 589.893 1648.41C592.714 1648.27 595.304 1646.65 598.114 1646.36C615.206 1644.59 632.408 1644.02 649.499 1642.24C678.998 1639.17 708.286 1633.94 737.88 1631.97C786.611 1628.72 835.119 1625.83 883.811 1621.69C969.056 1614.44 1055.2 1613.58 1140.73 1615.52C1170.22 1616.19 1199.63 1619.01 1229.11 1619.64C1275.05 1620.61 1320.89 1622.63 1366.82 1623.75C1379.84 1624.06 1392.87 1623.11 1405.88 1623.75C1446.96 1625.75 1488.06 1629.91 1529.2 1631.97C1588.07 1634.91 1647.03 1634.02 1705.96 1634.02C1740.93 1634.02 1775.9 1633.09 1810.79 1636.08C1830.69 1637.78 1850.46 1640.92 1870.39 1642.24C1899.95 1644.21 1929.24 1643.21 1958.77 1644.3C1976.63 1644.96 1994.37 1647.52 2012.21 1648.41C2035.68 1649.58 2058.67 1646.36 2082.09 1646.36C2085.75 1646.36 2098.54 1646.36 2098.54 1646.36C2099.8 1643.83 2096.74 1640.95 2096.48 1638.13C2096.05 1633.36 2095.98 1628.52 2096.48 1623.75C2098.24 1607.07 2101.61 1584.57 2106.76 1568.25C2108.98 1561.21 2112.65 1554.7 2114.98 1547.7C2124.85 1518.1 2129.78 1486.86 2139.65 1457.26C2144.93 1441.4 2152.42 1426.5 2156.09 1409.99C2160.31 1390.99 2164.75 1373.11 2170.48 1354.49C2172.46 1348.04 2172.66 1339.01 2178.7 1335.99C2180.07 1335.31 2181.39 1337.48 2182.81 1338.05C2184.82 1338.85 2187.08 1339.05 2188.97 1340.1C2198.12 1345.18 2206.73 1351.17 2215.69 1356.55C2224.98 1362.12 2233.4 1369.04 2242.41 1375.05C2258.84 1385.99 2277.89 1394.21 2293.8 1405.88C2300.45 1410.76 2305.58 1417.52 2312.3 1422.32C2320.28 1428.02 2331.47 1434.79 2341.07 1436.71C2342.42 1436.98 2343.85 1436.37 2345.18 1436.71C2346.67 1437.08 2348.92 1440.25 2349.29 1438.76C2350.83 1432.63 2346.31 1426.48 2345.18 1420.26C2343.41 1410.49 2341.46 1391.79 2341.07 1383.27C2340.05 1360.7 2342.05 1338.01 2341.07 1315.44C2339.67 1283.16 2339.02 1251.22 2339.02 1218.84C2339.02 1208.56 2338.09 1198.24 2339.02 1188.01C2343.87 1134.67 2349.5 1081.27 2351.35 1027.69C2353.02 979.331 2346.74 931.96 2345.18 883.811C2344.48 861.888 2343.91 839.96 2343.13 818.039C2341.62 775.893 2341.81 732.746 2343.13 690.606C2344.41 649.54 2350.94 608.428 2349.29 567.284C2348.55 548.686 2345.26 530.278 2343.13 511.788C2340.02 484.856 2339.02 456.67 2339.02 429.573C2339.02 394.466 2339.41 359.752 2341.07 324.749C2341.4 317.906 2340.39 311.013 2341.07 304.196C2342.32 291.755 2345.93 279.632 2347.24 267.199C2349.38 246.84 2350.04 225.742 2353.4 205.537C2356.85 184.864 2361.63 166.947 2361.63 145.932C2361.63 142.506 2363.55 128.03 2359.57 125.378C2358.3 124.528 2356.95 127.062 2355.46 127.433C2351.42 128.444 2347.27 129.028 2343.13 129.489C2338.36 130.018 2333.52 129.121 2328.74 129.489C2315.01 130.545 2301.39 133.001 2287.63 133.599C2269.84 134.373 2252 132.985 2234.19 133.599C2202.74 134.684 2171.06 137.861 2139.65 139.765C2115.67 141.219 2091.62 141.599 2067.71 143.876C2037.5 146.753 2007.58 152.775 1977.27 154.153C1935.8 156.038 1893.41 154.153 1851.89 154.153C1821.06 154.153 1790.22 153.419 1759.4 154.153C1731.24 154.824 1703.23 158.403 1675.13 160.319C1602.84 165.248 1529.72 168.211 1457.26 166.485C1410.64 165.375 1364.17 164.43 1317.5 164.43C1293.62 164.43 1269.4 165.622 1245.56 164.43C1221.42 163.223 1197.7 160.117 1173.62 158.264C1144.35 156.013 1112.52 157.041 1083.18 158.264C1059.22 159.262 1035.2 159.278 1011.24 160.319C985.295 161.447 959.109 166.485 933.14 166.485C915.957 166.485 898.924 163.09 881.756 162.375C861.904 161.547 842.004 161.611 822.15 162.375C792.852 163.501 762.97 163.357 733.769 166.485C701.044 169.992 668.195 178.818 635.111 178.818C617.233 178.818 599.432 173.92 581.671 172.651C576.887 172.31 572.024 173.381 567.284 172.651C553.607 170.547 539.758 163.454 526.176 160.319C518.137 158.464 509.728 159.011 501.512 158.264C492.537 157.448 483.785 154.715 474.792 154.153C442.215 152.117 408.806 154.153 376.134 154.153C358.177 154.153 342.274 154.367 324.749 150.042Z" fill="#ffffff" fill-rule="nonzero" opacity="0.844932" stroke="#000000" stroke-linecap="round" stroke-linejoin="round" stroke-width="20.2444"/>
<path d="M2098.54 1642.24C2104.18 1638.01 2110.87 1635.39 2117.04 1631.97C2135.83 1621.53 2154.36 1605.36 2170.48 1590.86C2184.54 1578.2 2195.33 1562.38 2209.53 1549.75C2221.04 1539.52 2234.38 1532.14 2246.52 1523.03C2254.03 1517.41 2261.11 1509.35 2269.13 1504.53C2270.99 1503.42 2273.44 1503.59 2275.3 1502.48C2280.02 1499.65 2283.32 1493.59 2287.63 1490.15C2298.75 1481.25 2309.26 1471.87 2320.52 1463.43C2328.01 1457.81 2332.55 1449.19 2341.07 1444.93" fill="#ffffff" fill-rule="nonzero" opacity="0.844932" stroke="#000000" stroke-linecap="round" stroke-linejoin="round" stroke-width="20.2444"/>
</g>
</svg>
