<?xml version="1.0" encoding="UTF-8" standalone="no"?>
<!DOCTYPE svg PUBLIC "-//W3C//DTD SVG 1.1//EN" "http://www.w3.org/Graphics/SVG/1.1/DTD/svg11.dtd">
<!-- Created with Vectornator (http://vectornator.io/) -->
<svg height="100%" stroke-miterlimit="10" style="fill-rule:nonzero;clip-rule:evenodd;stroke-linecap:round;stroke-linejoin:round;" version="1.1" viewBox="0 0 2523.15 1644.3" width="100%" xml:space="preserve" xmlns="http://www.w3.org/2000/svg" xmlns:vectornator="http://vectornator.io" xmlns:xlink="http://www.w3.org/1999/xlink">
<defs/>
<g id="Layer-2" vectornator:layerName="Layer 2">
<path d="M2359.76 1476.03C2359.56 1475.71 2358.93 1475.37 2359.16 1475.08C2359.48 1474.7 2360.41 1474.5 2360.65 1474.93C2362 1477.32 2362.63 1480.05 2363.44 1482.67C2363.64 1483.3 2363.7 1483.99 2363.64 1484.65C2363.02 1491.63 2361.82 1499.16 2357.67 1504.81C2356.78 1506 2355.29 1507.72 2353.9 1507.19C2352.47 1506.65 2352.72 1504.34 2352.45 1502.83C2351.55 1497.75 2350.64 1492.65 2350.4 1487.5C2349.95 1478.09 2351.38 1470.57 2355.32 1461.94C2356.11 1460.22 2358.95 1458.47 2360.68 1460.39C2369.42 1470.09 2367.34 1485.94 2361.82 1496.37C2360 1499.81 2357.81 1503.09 2355.29 1506.05C2354.32 1507.18 2352.81 1509.17 2351.52 1508.44C2349.32 1507.18 2348.79 1504.14 2347.84 1501.79C2346.56 1498.65 2345.62 1495.37 2344.85 1492.07C2342.49 1482.02 2340.07 1471.84 2339.74 1461.52C2339.66 1458.88 2340.65 1451.9 2342.76 1451.69C2343.44 1451.62 2344.94 1455.74 2345.6 1459.92C2346.82 1467.74 2348.48 1478.54 2344.24 1486.12C2344.06 1486.44 2343.33 1486.07 2343.2 1485.72C2342.35 1483.37 2342.39 1480.79 2341.95 1478.33C2340.42 1469.66 2338.86 1460.84 2339.28 1452.04C2339.37 1450.25 2339.7 1448.32 2340.77 1446.88C2341.37 1446.06 2342.91 1445.44 2343.69 1446.08C2345.91 1447.89 2347.29 1455.66 2347.43 1458.23C2347.59 1461.22 2348.11 1464.23 2347.84 1467.21C2347.47 1471.19 2346.4 1475.07 2345.52 1478.97C2344.94 1481.59 2344.69 1484.42 2343.3 1486.72C2342.63 1487.83 2342.3 1490.5 2341.12 1489.94C2339.77 1489.31 2340.88 1486.96 2340.67 1485.48C2340.28 1482.68 2339.74 1479.89 2339.32 1477.1C2338.25 1469.92 2336.91 1461.09 2336.96 1453.78C2336.96 1452.36 2336.63 1449.8 2338.04 1449.66C2339.4 1449.52 2339.08 1452.2 2339.44 1453.53C2339.61 1454.17 2339.54 1454.85 2339.64 1455.51C2340.07 1458.48 2340.74 1461.41 2341.04 1464.39C2341.42 1468.2 2341.61 1472.03 2341.7 1475.85C2341.89 1484.16 2341.67 1495.79 2340.55 1504.04C2339.48 1511.85 2336.96 1519.39 2335.37 1527.12C2334.17 1532.93 2334.04 1538.91 2333.66 1544.83C2333.27 1550.79 2332.25 1556.67 2331.94 1562.55C2331.87 1563.92 2331.57 1565.26 2331.35 1566.62C2331.16 1567.81 2329.51 1570.31 2330.71 1570.19C2332.05 1570.05 2331.84 1567.76 2332.35 1566.52C2333.05 1564.79 2333.64 1563.03 2334.32 1561.3C2335.63 1557.98 2337.06 1554.71 2338.33 1551.37C2344 1536.41 2348.13 1521.32 2359.11 1509.17C2360.87 1507.22 2362.92 1505.51 2365.11 1504.05C2365.66 1503.68 2366.87 1503.23 2367.09 1503.85C2367.56 1505.14 2366.85 1506.6 2366.5 1507.92C2365.76 1510.73 2364.86 1513.5 2363.83 1516.21C2362.49 1519.76 2360.94 1523.23 2359.38 1526.69C2355.11 1536.17 2349.33 1549.21 2344.54 1558.26C2342.94 1561.29 2340.99 1564.14 2338.9 1566.85C2338.44 1567.44 2337.3 1568.73 2337.01 1568.05C2336.25 1566.2 2336.48 1564 2336.9 1562.04C2337.98 1557.1 2339.62 1552.27 2341.45 1547.55C2349.77 1526.11 2366.31 1510.63 2384.45 1497.08C2390.32 1492.7 2400.1 1487.46 2407.31 1485.24C2408.12 1484.99 2409.75 1484.64 2409.84 1485.48C2410.07 1487.78 2408.43 1490 2406.97 1491.79C2404.37 1494.98 2401.66 1498.08 2398.89 1501.13C2394.14 1506.36 2389.41 1511.62 2384.43 1516.63C2366.49 1534.64 2343.65 1550.19 2331.51 1573.12C2331.34 1573.44 2332.22 1572.81 2332.45 1572.52C2334.31 1570.24 2335.98 1567.81 2337.75 1565.47C2339.95 1562.56 2342.18 1559.67 2344.39 1556.77C2348.52 1551.35 2352.46 1545.77 2356.77 1540.48C2375.69 1517.3 2397.89 1499.75 2421.49 1481.8C2424.17 1479.76 2426.69 1477.52 2429.37 1475.48C2430.26 1474.81 2431.09 1473.81 2432.2 1473.69C2432.9 1473.62 2431.31 1474.79 2430.86 1475.33C2430.56 1475.7 2430.28 1476.07 2429.97 1476.43C2427.73 1479 2425.67 1481.74 2423.23 1484.13C2414.66 1492.53 2405.45 1500.24 2396.62 1508.38C2380.86 1522.89 2365.47 1537.78 2350.54 1553.14C2346.75 1557.04 2343.12 1561.08 2339.19 1564.82C2337.72 1566.22 2336.6 1568.59 2334.58 1568.8C2333.16 1568.94 2336 1566.31 2336.71 1565.07C2339.12 1560.82 2341.31 1556.43 2343.94 1552.31C2347.8 1546.24 2351.52 1540.02 2356.17 1534.53C2375.97 1511.15 2400 1489.67 2425 1471.92C2431.18 1467.53 2437.74 1463.67 2444.34 1459.93C2447.32 1458.24 2450.25 1456.46 2453.36 1455.01C2453.96 1454.73 2455.28 1454.15 2455.34 1454.81C2455.43 1455.63 2452.85 1457.56 2452.17 1458.14C2450.17 1459.84 2448.27 1461.67 2446.18 1463.26C2443.15 1465.54 2439.97 1467.63 2436.81 1469.72C2423.66 1478.4 2410.3 1486.76 2395.51 1492.45C2393.31 1493.29 2391.01 1494.01 2388.66 1494.15C2386.93 1494.25 2383.97 1494.85 2383.55 1493.16C2382.78 1490.04 2384.47 1486.64 2386.12 1483.88C2388.29 1480.24 2391.68 1477.47 2394.69 1474.49C2395.64 1473.55 2396.77 1472.77 2397.96 1472.15C2403.93 1469.04 2409.69 1465.33 2416.11 1463.3C2423.74 1460.87 2431.8 1460.06 2439.72 1458.9C2443.01 1458.42 2446.37 1458.59 2449.69 1458.39C2450.36 1458.35 2451.03 1458.02 2451.68 1458.19C2452.98 1458.52 2455.1 1458.5 2455.35 1459.82C2455.64 1461.32 2453.9 1462.61 2452.73 1463.59C2450.36 1465.59 2447.56 1466.99 2444.64 1467.92C2439.96 1469.42 2435.26 1470.89 2430.56 1472.36C2422.63 1474.84 2414.81 1477.74 2406.75 1479.78C2395.34 1482.67 2384.37 1483.81 2372.82 1481.22C2368.89 1480.34 2364 1478.52 2362.64 1474.73C2362.52 1474.42 2362.38 1474.03 2362.54 1473.74C2363.96 1471.14 2364.96 1468.06 2367.29 1466.24C2372.27 1462.34 2377.95 1459.21 2383.9 1457.04C2388.9 1455.21 2394.4 1455.24 2399.67 1454.44C2400.99 1454.24 2402.31 1454.05 2403.64 1454.03C2409.99 1453.94 2416.36 1453.69 2422.69 1454.11C2427.32 1454.42 2431.91 1455.25 2436.44 1456.22C2437.25 1456.4 2438.6 1456.68 2438.58 1457.51C2438.55 1458.69 2437.34 1459.61 2436.35 1460.24C2433.5 1462.04 2430.47 1463.6 2427.27 1464.67C2422.49 1466.27 2418.23 1466.59 2413.48 1467.07C2392.35 1469.21 2371.77 1469.53 2350.72 1465.92C2349.62 1465.73 2348.6 1465.19 2347.59 1464.73C2344.4 1463.28 2340.57 1462.67 2338.11 1460.18C2336.93 1458.99 2337.08 1456.49 2338.1 1455.17C2339.63 1453.15 2342.5 1452.66 2344.74 1451.49C2350.96 1448.23 2358.75 1447.49 2365.33 1446.89C2375.28 1445.99 2385.3 1445.86 2395.29 1445.86C2410.43 1445.85 2429.98 1446.46 2443.68 1453.48C2445.05 1454.18 2441.98 1456.38 2440.51 1456.81C2431.41 1459.49 2426.09 1459.02 2416.75 1459.72C2403.04 1460.75 2389.43 1460.57 2375.67 1459.88C2374.3 1459.81 2372.33 1460.45 2371.6 1459.29C2371.03 1458.4 2373.46 1458.29 2374.47 1457.99C2378.67 1456.76 2382.91 1455.68 2387.17 1454.7C2388.14 1454.48 2389.15 1454.5 2390.15 1454.4C2411.26 1452.26 2432.08 1449.4 2453.35 1450C2455.73 1450.06 2458.09 1450.47 2460.45 1450.78C2460.97 1450.85 2462.17 1450.64 2461.99 1451.13C2461.67 1451.96 2454.9 1452.97 2453.6 1452.48" fill="none" opacity="0.844932" stroke="#ffe982" stroke-linecap="round" stroke-linejoin="round" stroke-width="20.2444"/>
</g>
<g id="Layer-1" vectornator:layerName="Layer 1">
<path d="M30.158 36.5028C28.5026 36.5028 27.158 37.915 27.158 39.659L27.158 1600.38C27.1581 1602.12 28.5027 1603.57 30.158 1603.57L2323.88 1603.57L2452.91 1480.82L2487.53 1447.88L2487.53 39.659C2487.53 37.915 2486.19 36.5028 2484.53 36.5028L30.158 36.5028Z" fill="#ffe982" fill-opacity="0.509008" fill-rule="nonzero" opacity="0.844932" stroke="#000000" stroke-linecap="butt" stroke-linejoin="round" stroke-width="20.2444"/>
<path d="M2320.66 1598.83" fill="none" opacity="0.844932" stroke="#160a0a" stroke-linecap="butt" stroke-linejoin="round" stroke-width="20.2444"/>
<path d="M2317.94 1604.07L2323.17 1429.84" fill="none" opacity="0.844932" stroke="#160a0a" stroke-linecap="round" stroke-linejoin="round" stroke-width="20.2444"/>
<path d="M2326.32 1429.67L2486.29 1439.2" fill="none" opacity="0.844932" stroke="#160a0a" stroke-linecap="round" stroke-linejoin="round" stroke-width="20.2444"/>
</g>
</svg>
