<?xml version="1.0" encoding="UTF-8" standalone="no"?>
<!DOCTYPE svg PUBLIC "-//W3C//DTD SVG 1.1//EN" "http://www.w3.org/Graphics/SVG/1.1/DTD/svg11.dtd">
<!-- Created with Vectornator (http://vectornator.io/) -->
<svg height="100%" stroke-miterlimit="10" style="fill-rule:nonzero;clip-rule:evenodd;stroke-linecap:round;stroke-linejoin:round;" version="1.1" viewBox="0 0 2693.25 1927.8" width="100%" xml:space="preserve" xmlns="http://www.w3.org/2000/svg" xmlns:vectornator="http://vectornator.io" xmlns:xlink="http://www.w3.org/1999/xlink">
<defs/>
<g id="Layer-1" vectornator:layerName="Layer 1">
<path d="M49.329 102.319C56.9636 110.249 55.8593 130.951 56.3545 141.238C57.8509 172.325 58.2856 202.582 56.3545 233.673C54.7933 258.808 52.5065 283.907 51.6708 309.08C50.3217 349.72 52.7925 390.147 54.0127 430.703C54.9636 462.31 54.0127 493.948 54.0127 525.57C54.0127 568.577 50.4884 611.505 51.6708 654.492C52.4514 682.87 52.4533 711.284 54.0127 739.628C55.799 772.099 60.1687 804.416 61.0381 836.927C62.5993 895.305 62.5125 953.73 65.7218 1012.07C70.9401 1106.92 81.5971 1201.63 84.4564 1296.67C86.2093 1354.93 84.4564 1413.52 84.4564 1471.8C84.4564 1516.66 79.4818 1560.85 77.4309 1605.59C75.9161 1638.63 77.4309 1672.22 77.4309 1705.32C77.4309 1725.93 78.2588 1745.69 79.7727 1766.13C80.058 1769.99 78.4408 1785.69 82.1146 1790.46C85.1459 1794.39 110.016 1792.89 114.9 1792.89C121.624 1792.89 129.328 1791.91 135.977 1792.89C148.584 1794.76 160.938 1800.33 173.446 1802.62C186.604 1805.03 200.043 1805.43 213.257 1807.49C242.001 1811.97 271.567 1815.29 299.904 1822.08C346.842 1833.33 392.202 1844.42 440.414 1848.84C511.31 1855.34 582.544 1848.84 653.52 1848.84C684.744 1848.84 716.017 1847.04 747.193 1848.84C778.525 1850.65 809.594 1855.86 840.866 1858.57C941.632 1867.29 1041.62 1878.37 1142.96 1875.6C1172.62 1874.79 1202.31 1874.67 1231.95 1873.16C1264.61 1871.51 1297.81 1865.93 1330.31 1863.43C1361.49 1861.03 1392.76 1860.23 1423.98 1858.57C1483.16 1855.42 1542.95 1854.41 1601.96 1848.84C1605.16 1848.54 1608.11 1846.57 1611.33 1846.41C1642.55 1844.86 1673.94 1845.21 1705 1841.54C1721.45 1839.6 1737.71 1836.04 1754.18 1834.24C1783.77 1831.01 1813.62 1830.6 1843.17 1826.95C1888.38 1821.36 1933.58 1813.74 1978.99 1809.92C2021.12 1806.37 2065.53 1804.9 2107.79 1807.49C2110.26 1807.64 2112.35 1809.78 2114.82 1809.92C2127.29 1810.6 2139.83 1809.03 2152.29 1809.92C2181.38 1812 2210.04 1821.66 2238.94 1824.51C2267.1 1827.3 2297.82 1824.46 2325.58 1819.65C2327.83 1819.26 2338.15 1816.83 2339.63 1814.78C2343.95 1808.8 2343.07 1800.25 2344.32 1792.89C2345.83 1783.96 2347.15 1774.99 2349 1766.13C2351.05 1756.33 2353.52 1746.63 2356.03 1736.94C2362.13 1713.39 2368.09 1689.79 2374.76 1666.4C2380.65 1645.75 2388.75 1625.84 2395.84 1605.59C2403.88 1582.63 2409.09 1558.77 2414.57 1535.05C2417 1524.53 2418.95 1513.89 2421.6 1503.43C2422.85 1498.47 2424.45 1493.59 2426.28 1488.83C2427.28 1486.23 2436.51 1462.07 2440.33 1462.07C2442.08 1462.07 2441.44 1465.66 2442.67 1466.94C2443.91 1468.22 2445.7 1468.8 2447.36 1469.37C2453.69 1471.56 2459.77 1474.48 2466.09 1476.67C2485.77 1483.48 2506.87 1486.35 2526.98 1491.26C2541.01 1494.69 2553.1 1501.98 2566.79 1505.86C2579.64 1509.5 2593.85 1509.18 2606.6 1513.16C2612.99 1515.15 2618.73 1519.47 2625.34 1520.45C2628.82 1520.97 2651.26 1522.37 2648.76 1530.18C2647.52 1534.03 2644.07 1536.67 2641.73 1539.91C2632.18 1553.14 2622.59 1564.66 2611.29 1576.4C2591.72 1596.72 2571.18 1615.9 2550.4 1634.78C2544.15 1640.46 2539.87 1648.15 2534.01 1654.24C2520.95 1667.8 2503.5 1678.44 2489.51 1690.73C2481.49 1697.77 2475.86 1707.34 2468.43 1715.05C2453.98 1730.06 2437.03 1742.66 2421.6 1756.4C2416.57 1760.88 2412.72 1766.7 2407.55 1771C2400.99 1776.45 2392.92 1780.01 2386.47 1785.59C2380.13 1791.08 2374.34 1797.48 2367.74 1802.62C2361.42 1807.54 2363.9 1802.58 2356.03 1807.49C2352.24 1809.85 2349.78 1813.97 2346.66 1817.22" fill="none" opacity="0.844932" stroke="#000000" stroke-linecap="round" stroke-linejoin="round" stroke-width="20.2444"/>
<path d="M61.0381 97.4539C47.8821 104.286 67.4335 97.5266 68.0636 97.4539C72.7186 96.9166 77.4428 97.1072 82.1146 97.4539C101.648 98.9031 121.117 101.125 140.66 102.319C159.173 103.45 178.308 102.319 196.864 102.319C227.47 102.319 257.714 103.162 288.195 99.8863C315.471 96.9555 342.752 93.5072 370.159 92.5889C405.416 91.4075 440.329 93.913 475.541 95.0214C499.729 95.7827 523.948 94.3423 548.138 95.0214C616.303 96.935 683.522 104.347 751.877 102.319C793.336 101.088 834.687 95.8893 875.993 92.5889C931.833 88.1273 988.613 84.3895 1044.6 82.859C1147.57 80.0444 1250.76 85.6736 1353.73 82.859C1412.32 81.2575 1471.06 73.7695 1529.36 68.2641C1597.09 61.869 1665.38 62.3088 1733.1 56.1017C1770.68 52.6575 1807.66 45.1306 1845.51 43.9393C1869.7 43.178 1893.92 44.8364 1918.11 43.9393C1950.14 42.7509 1982.1 40.4049 2014.12 39.0744C2032.08 38.3283 2050.03 40.696 2067.98 41.5068C2085.14 42.2817 2102.35 40.5693 2119.5 41.5068C2155.74 43.488 2191.04 53.6692 2227.23 53.6692C2249.86 53.6692 2272.29 56.839 2295.14 58.5342C2338.32 61.7381 2382.91 58.5342 2426.28 58.5342C2458.89 58.5342 2492.84 49.4962 2524.64 56.1017C2534.14 58.0745 2543.68 55.0138 2552.74 53.6692C2559.63 52.6476 2566.93 54.6909 2573.82 53.6692C2588.07 51.5541 2601.42 51.2368 2615.97 51.2368C2622.21 51.2368 2628.46 51.2368 2634.7 51.2368C2636.27 51.2368 2639.39 49.6151 2639.39 51.2368C2639.39 55.6032 2630.65 53.0142 2627.68 56.1017C2622.68 61.2974 2621.47 80.9367 2620.65 87.7239C2618.23 107.884 2613.45 128.351 2611.29 148.536C2607.4 184.887 2604.25 221.595 2599.58 257.997C2597.04 277.729 2591.41 296.377 2590.21 316.377C2587.4 363.148 2594.12 410.788 2590.21 457.461C2589.39 467.288 2586.43 476.831 2585.53 486.65C2584.86 493.915 2585.83 501.252 2585.53 508.543C2581.68 600.524 2586.81 691.54 2590.21 783.413C2591.8 826.378 2590.83 869.359 2592.55 912.334C2593.56 937.397 2592.88 962.885 2597.24 987.741C2601.79 1013.77 2608.86 1039.57 2613.63 1065.58C2622.8 1115.58 2630.57 1165.97 2637.05 1216.39C2639.75 1237.46 2642.71 1258.47 2644.07 1279.64C2644.8 1290.97 2643.23 1302.38 2644.07 1313.69C2645.61 1334.44 2650.45 1353.35 2648.76 1374.51C2645.75 1412 2641.73 1448.58 2641.73 1486.4C2641.73 1504.24 2641.73 1522.08 2641.73 1539.91C2641.73 1547.18 2640.18 1554.51 2648.76 1554.51" fill="none" opacity="0.844932" stroke="#000000" stroke-linecap="round" stroke-linejoin="round" stroke-width="20.2444"/>
</g>
</svg>
