<?xml version="1.0" encoding="UTF-8" standalone="no"?>
<!-- Created with Vectornator (http://vectornator.io/) -->

<svg
   height="100%"
   stroke-miterlimit="10"
   style="fill-rule:nonzero;clip-rule:evenodd;stroke-linecap:round;stroke-linejoin:round;"
   version="1.1"
   viewBox="0 0 252 252"
   width="100%"
   xml:space="preserve"
   id="svg22"
   sodipodi:docname="5 white.svg"
   inkscape:version="1.2.1 (9c6d41e410, 2022-07-14)"
   xmlns:inkscape="http://www.inkscape.org/namespaces/inkscape"
   xmlns:sodipodi="http://sodipodi.sourceforge.net/DTD/sodipodi-0.dtd"
   xmlns="http://www.w3.org/2000/svg"
   xmlns:svg="http://www.w3.org/2000/svg"
   xmlns:vectornator="http://vectornator.io"><sodipodi:namedview
   id="namedview24"
   pagecolor="#ffffff"
   bordercolor="#000000"
   borderopacity="0.25"
   inkscape:showpageshadow="2"
   inkscape:pageopacity="0.0"
   inkscape:pagecheckerboard="0"
   inkscape:deskcolor="#d1d1d1"
   showgrid="false"
   inkscape:zoom="3.1904762"
   inkscape:cx="116.75373"
   inkscape:cy="126.15672"
   inkscape:window-width="1920"
   inkscape:window-height="991"
   inkscape:window-x="-9"
   inkscape:window-y="-9"
   inkscape:window-maximized="1"
   inkscape:current-layer="svg22" />
<defs
   id="defs2" />
<clipPath
   id="ArtboardFrame">
<rect
   height="252"
   width="252"
   x="0"
   y="0"
   id="rect4" />
</clipPath>
<g
   clip-path="url(#ArtboardFrame)"
   id="レイヤー-1"
   vectornator:layerName="レイヤー 1"
   style="stroke:#ffffff;stroke-opacity:1">
<path
   d="M406.141 855.088C406.141 842.049 405.055 828.964 406.141 815.971C409.085 780.771 414.19 745.785 418.215 710.693"
   fill="none"
   opacity="0.844932"
   stroke="#160a0a"
   stroke-linecap="butt"
   stroke-linejoin="round"
   stroke-width="4.96683"
   id="path7"
   style="stroke:#ffffff;stroke-opacity:1" />
<path
   d="M5.5366 165.854C3.53135 161.908 4.28772 152.821 4.58309 148.623C5.83588 130.815 7.64031 112.5 15.1703 95.9996C16.8666 92.2826 19.1042 88.8224 21.4078 85.448C22.8648 83.3138 24.5049 81.2704 26.4143 79.5292C27.3381 78.6868 30.6452 77.0005 32.2891 77.8091C36.7774 80.0167 36.5477 83.0821 37.4001 87.8661C38.9583 96.6121 38.1202 105.61 39.6753 114.338C39.8202 115.152 41.1206 119.601 43.4892 118.938C45.8303 118.283 47.9013 113.618 48.4902 112.179C49.8999 108.732 50.8229 105.101 52.2052 101.644C55.9944 92.1661 60.0542 82.1693 67.1643 74.6381C69.3749 72.2965 75.1266 66.6111 79.3178 68.6726C81.2252 69.6108 81.0259 75.3156 81.0462 75.8087C81.3749 83.8205 79.3626 91.0572 78.6748 98.9479C78.5282 100.63 77.9576 108.857 82.9339 107.329C85.3163 106.597 88.0153 101.398 88.773 100.143C93.0786 93.0141 96.8896 85.4539 101.666 78.6169C104.437 74.65 106.494 72.6211 107.095 73.1158C108.106 73.9466 107.203 79.6072 107.142 80.2628C106.511 87.0155 104.55 99.2829 115.627 91.9795C125.686 85.3472 129.509 71.5399 135.189 61.5805C135.606 60.8488 141.286 53.4744 142.286 53.9663C143.67 54.6467 142.397 57.0514 142.317 58.5909C142.05 63.6854 140.925 68.7679 139.893 73.7423C139.486 75.7069 139.117 77.6802 138.67 79.6363C138.572 80.0683 137.815 80.9032 138.258 80.9003C140.138 80.888 140.09 77.6002 140.748 75.8388C141.385 74.1322 142.078 72.4454 142.817 70.7801C146.539 62.3931 151.17 52.0135 160.329 48.3828C161.403 47.9569 162.627 47.0575 163.686 47.52C164.034 47.6718 164.359 52.1154 164.148 53.8234C163.426 59.6538 161.508 65.4218 160.056 71.0879C159.879 71.7801 158.935 73.1974 159.65 73.1927C161.406 73.1812 161.367 70.1273 162.142 68.5516C163.11 66.5833 164.033 64.5919 165.046 62.6466C168.973 55.1105 173.125 44.8793 182.152 42.3541C186.015 41.2733 184.581 47.8818 184.3 49.4874C183.978 51.3291 183.383 53.1169 183.075 54.961C182.82 56.4853 181.545 63.7011 183.141 65.0509C185.735 67.2449 189.445 62.5515 190.266 61.6409C191.88 59.8498 193.066 57.7146 194.432 55.7276C198.482 49.8338 202.427 43.8524 206.508 37.9905C207.133 37.0922 207.522 35.676 208.594 35.4543C210.264 35.1089 207.087 40.5652 206.948 40.9307C205.74 44.0977 203.35 54.7793 207.052 56.9064C211.496 59.46 215.654 53.6925 217.947 51.3696C223.078 46.1716 226.887 42.139 230.038 35.7346"
   fill="none"
   opacity="0.844932"
   stroke="#160a0a"
   stroke-linecap="butt"
   stroke-linejoin="round"
   stroke-width="4.96683"
   id="path9"
   style="stroke:#ffffff;stroke-opacity:1" />
<path
   d="M31.2409 142.562C31.8566 137.742 31.3431 148.032 30.6515 148.873C30.3997 149.179 29.8855 148.426 29.8052 148.037C29.5781 146.94 29.7905 145.795 29.7832 144.674C29.7756 143.51 29.1682 137.394 30.5718 136.681C31.4813 136.219 31.3405 138.602 31.4319 139.618C31.6473 142.014 31.7683 145.205 31.4841 147.606C31.4473 147.917 31.331 148.622 31.0692 148.45C29.433 147.374 30.3696 138.682 31.0032 138.36C31.3804 138.168 30.8689 145.475 31.2409 142.562Z"
   fill="none"
   opacity="0.844932"
   stroke="#160a0a"
   stroke-linecap="butt"
   stroke-linejoin="round"
   stroke-width="4.96683"
   id="path11"
   style="stroke:#ffffff;stroke-opacity:1" />
<path
   d="M62.052 128.697C59.9544 121.83 65.0473 136.771 61.2703 137.741C60.8864 137.84 60.5403 137.285 60.4239 136.906C59.9405 135.332 59.7131 125.559 61.611 125.547C63.5994 125.534 63.1299 134.177 62.5178 135.631C62.364 135.996 62.0593 136.6 61.6824 136.477C60.9571 136.241 60.6854 128.177 61.2043 127.651C62.089 126.755 62.1372 128.976 62.052 128.697Z"
   fill="none"
   opacity="0.844932"
   stroke="#160a0a"
   stroke-linecap="butt"
   stroke-linejoin="round"
   stroke-width="4.96683"
   id="path13"
   style="stroke:#ffffff;stroke-opacity:1" />
<path
   d="M43.3299 158.88C39.465 159.698 47.7168 154.7 45.8469 158.023C45.2577 159.07 39.9723 161.94 38.7191 161.013C35.8981 158.926 43.5237 152.434 47.0889 155.072C49.3194 156.722 42.5663 160.698 42.0741 159.729C40.7724 157.168 46.6484 154.431 45.8331 155.921C45.2131 157.054 44.5939 158.613 43.3299 158.88Z"
   fill="none"
   opacity="0.844932"
   stroke="#160a0a"
   stroke-linecap="butt"
   stroke-linejoin="round"
   stroke-width="4.96683"
   id="path15"
   style="stroke:#ffffff;stroke-opacity:1" />
<path
   d="M107.513 61.3904C108.94 63.6988 104.9 61.4297 107.863 60.4421C108.961 60.0759 109.92 61.212 109.36 62.2388C109.019 62.8644 107.595 63.5003 107.164 62.6381C106.617 61.5452 108.429 59.994 109.06 60.9412C109.425 61.4886 109.007 62.0481 108.461 62.139C107.483 62.3021 107.432 61.2588 107.513 61.3904Z"
   fill="none"
   opacity="0.844932"
   stroke="#160a0a"
   stroke-linecap="butt"
   stroke-linejoin="round"
   stroke-width="4.96683"
   id="path17"
   style="stroke:#ffffff;stroke-opacity:1" />
<path
   d="M211.277 25.854C211.673 26.3197 212.654 25.6952 212.875 26.5028C213.209 27.7278 210.925 28.5073 210.08 28.0001C208.824 27.247 210.436 24.864 211.277 25.854Z"
   fill="none"
   opacity="0.844932"
   stroke="#160a0a"
   stroke-linecap="butt"
   stroke-linejoin="round"
   stroke-width="4.96683"
   id="path19"
   style="stroke:#ffffff;stroke-opacity:1" />
</g>
</svg>
