<?xml version="1.0" encoding="UTF-8" standalone="no"?>
<!-- Created with Vectornator (http://vectornator.io/) -->

<svg
   height="100%"
   stroke-miterlimit="10"
   style="fill-rule:nonzero;clip-rule:evenodd;stroke-linecap:round;stroke-linejoin:round;"
   version="1.1"
   viewBox="0 0 419.58 297.675"
   width="100%"
   xml:space="preserve"
   id="svg265"
   sodipodi:docname="Pause logo.svg"
   inkscape:version="1.2.1 (9c6d41e410, 2022-07-14)"
   xmlns:inkscape="http://www.inkscape.org/namespaces/inkscape"
   xmlns:sodipodi="http://sodipodi.sourceforge.net/DTD/sodipodi-0.dtd"
   xmlns="http://www.w3.org/2000/svg"
   xmlns:svg="http://www.w3.org/2000/svg"
   xmlns:vectornator="http://vectornator.io"><sodipodi:namedview
   id="namedview267"
   pagecolor="#ffffff"
   bordercolor="#000000"
   borderopacity="0.25"
   inkscape:showpageshadow="2"
   inkscape:pageopacity="0.0"
   inkscape:pagecheckerboard="0"
   inkscape:deskcolor="#d1d1d1"
   showgrid="false"
   inkscape:zoom="2.7009322"
   inkscape:cx="197.33927"
   inkscape:cy="148.8375"
   inkscape:window-width="1920"
   inkscape:window-height="991"
   inkscape:window-x="-9"
   inkscape:window-y="-9"
   inkscape:window-maximized="1"
   inkscape:current-layer="Layer-1" />
<defs
   id="defs260" />
<g
   id="Layer-1"
   vectornator:layerName="Layer 1"
   style="stroke:#ffffff;stroke-opacity:1">
<path
   d="M143.765 178.227C153.435 139.545 95.0808 190.178 105.949 204.307C116.561 218.102 151.074 172.919 156.805 169.099C159.317 167.424 153.679 174.268 152.241 176.923C150.344 180.424 139.391 195.463 144.417 201.047C154.317 212.047 196.423 163.807 200.488 165.839C203.949 167.57 195.463 171.748 193.316 174.967C190.103 179.788 179.768 192.339 182.884 199.091C187.764 209.663 224.791 179.065 228.524 175.619C231.575 172.803 234.242 169.595 237 166.491C238.535 164.764 243.007 159.471 241.564 161.275C237.315 166.587 213.308 211.291 236.348 192.571C251.146 180.548 278.634 133.797 302.852 158.015C314.868 170.031 309.441 181.665 295.028 188.007C290.588 189.96 283.027 192.323 278.076 193.223C274.648 193.846 264.16 193.875 267.644 193.875C288.077 193.875 359.262 193.322 355.011 159.319C353.949 150.824 319.294 175.859 334.147 182.791C345.098 187.902 368.082 189.772 380.439 188.007C397.193 185.614 399.12 173.678 397.391 176.271M64.2213 151.495C46.0165 133.29 19.3464 211.81 33.5775 214.087C57.6825 217.944 83.8217 176.112 94.2131 161.927C101.231 152.347 107.499 142.235 114.425 132.587C117.456 128.366 131.348 110.227 137.245 102.596C138.093 101.497 145.47 94.6466 143.113 93.4677M97.4731 119.548C94.118 96.0622 126.956 78.8152 141.157 69.9959C180.022 45.8583 237.761 59.2225 183.536 105.856C178.326 110.337 172.53 114.145 166.585 117.592C149.934 127.244 135.503 134.445 117.033 137.803"
   fill="#241c1c"
   fill-opacity="0"
   fill-rule="nonzero"
   opacity="1"
   stroke="#8b8b8b"
   stroke-linecap="round"
   stroke-linejoin="round"
   stroke-width="8.05973"
   id="path262"
   style="stroke:#ffffff;stroke-opacity:1" />
</g>
</svg>
