<?xml version="1.0" encoding="UTF-8" standalone="no"?>
<!DOCTYPE svg PUBLIC "-//W3C//DTD SVG 1.1//EN" "http://www.w3.org/Graphics/SVG/1.1/DTD/svg11.dtd">
<!-- Created with Vectornator (http://vectornator.io/) -->
<svg height="100%" stroke-miterlimit="10" style="fill-rule:nonzero;clip-rule:evenodd;stroke-linecap:round;stroke-linejoin:round;" version="1.1" viewBox="0 0 419.58 297.675" width="100%" xml:space="preserve" xmlns="http://www.w3.org/2000/svg" xmlns:vectornator="http://vectornator.io" xmlns:xlink="http://www.w3.org/1999/xlink">
<defs/>
<g id="Layer-1" vectornator:layerName="Layer 1">
<path d="M56.078 148.141C56.078 73.4861 118.181 12.966 194.79 12.966C271.398 12.966 333.502 73.4861 333.502 148.141C333.502 222.797 271.398 283.317 194.79 283.317C118.181 283.317 56.078 222.797 56.078 148.141Z" fill="#f8b3b3" fill-opacity="0.662179" fill-rule="nonzero" opacity="0.844932" stroke="#160a0a" stroke-linecap="butt" stroke-linejoin="round" stroke-width="4.96683"/>
<path d="M225.047 102.372C228.62 106.229 232.721 110.818 235.264 115.524C244.396 132.428 247.557 165.047 242.337 183.834C239.416 194.348 234.2 203.528 229.763 213.109M268.665 117.332C281.751 131.462 284.86 156.005 280.453 175.035C279.367 179.728 277.147 184.046 275.738 188.612" fill="none" opacity="0.844932" stroke="#160a0a" stroke-linecap="round" stroke-linejoin="round" stroke-width="4.96683"/>
<path d="M112.942 123.216C120.942 113.408 129.669 106.201 139.183 97.9118C149.378 89.0288 158.938 80.9295 169.909 73.1538C171.295 72.1718 178.127 67.323 180.031 68.0534C184.796 69.8808 185.541 88.3783 185.761 92.503C186.632 108.782 189.085 124.805 190.542 140.984C191.161 147.847 190.501 154.772 190.801 161.6C191.633 180.52 191.981 199.36 192.196 218.378C192.218 220.298 192.75 237.814 192.113 238.557C191.055 239.789 177.114 230.744 175.368 229.787C157.737 220.115 143.731 204.941 126.131 195.286C123.602 193.899 121.653 197.91 120.442 199.739C117.142 204.723 112.802 210.057 107.372 212.793C106.317 213.325 103.469 216.194 101.968 214.906C96.7191 210.401 96.9442 200.088 96.5906 194.062C96.0013 184.019 96.6749 181.256 96.4938 171.39C96.3468 163.383 95.2345 148.282 95.643 140.11C95.8228 136.511 96.4544 119.361 99.2272 117.191C101.445 115.455 109.981 124.899 110.169 124.858C111.217 124.625 112.263 124.049 112.942 123.216Z" fill="none" opacity="0.844932" stroke="#160a0a" stroke-linecap="round" stroke-linejoin="round" stroke-width="4.96683"/>
</g>
</svg>
