<?xml version="1.0" encoding="UTF-8" standalone="no"?>
<!DOCTYPE svg PUBLIC "-//W3C//DTD SVG 1.1//EN" "http://www.w3.org/Graphics/SVG/1.1/DTD/svg11.dtd">
<!-- Created with Vectornator (http://vectornator.io/) -->
<svg height="100%" stroke-miterlimit="10" style="fill-rule:nonzero;clip-rule:evenodd;stroke-linecap:round;stroke-linejoin:round;" version="1.1" viewBox="0 0 419.58 297.675" width="100%" xml:space="preserve" xmlns="http://www.w3.org/2000/svg" xmlns:vectornator="http://vectornator.io" xmlns:xlink="http://www.w3.org/1999/xlink">
<defs/>
<g id="Layer-1" vectornator:layerName="Layer 1">
<path d="M41.3465 113.225L41.8333 263.468C41.8333 265.902 43.6384 267.875 45.8651 267.875L312.231 267.875C314.457 267.875 316.263 265.902 316.263 263.468C316.263 263.468 316.263 265.902 316.263 263.468L315.509 257.089L315.75 256.957C332.822 266.287 357.827 251.543 369.253 236.783C376.557 227.349 383.438 214.81 373.287 203.715C363.277 192.773 342.543 193.377 330.26 196.734C327.016 197.62 320.328 202.304 316.714 205.992L316.814 201.143C316.6 163.257 315.406 111.922 315.406 111.922C315.406 109.488 307.564 105.366 305.337 105.366L165.09 104.986L165.09 104.986L137 106.369L129.907 107.44C129.907 104.27 132.561 97.75 133.515 94.6225C136.977 83.2687 141.989 72.4901 144.881 60.9018C145.888 56.8664 144.682 42.4155 139.469 41.3794C133.106 40.115 126.938 44.3558 122.149 48.2812C111.141 57.3058 102.787 68.8032 95.9895 81.8047C93.5371 86.4957 90.6094 91.0026 88.4123 95.8056C87.871 96.9888 87.2653 98.1393 86.7886 99.3552C86.5334 100.006 86.3265 100.679 86.0669 101.327C85.8513 101.866 85.3453 102.905 85.3453 102.905C85.3453 102.905 85.7297 102.262 85.8865 101.919C86.5625 100.441 86.8807 98.757 87.3298 97.186C88.5716 92.8427 90.0608 88.6319 91.4793 84.3682C92.6702 80.7885 93.5059 76.964 94.5462 73.3252C97.0853 64.4443 100.552 55.0038 101.402 45.7177C101.772 41.6737 101.951 36.2609 99.0565 33.0971C97.4346 31.3243 94.1482 30.2815 92.0205 29.7448C84.645 27.8844 73.2757 41.0975 69.4692 46.5065C65.4499 52.2177 60.9595 57.7574 57.2012 63.6626C51.4093 72.7631 47.0481 82.955 43.8508 93.4393C42.5757 97.6207 41.4662 102.46 40.9643 106.849C40.7488 108.733 42.0909 117.926 41.3465 119.553" fill="none" opacity="0.844932" stroke="#160a0a" stroke-linecap="butt" stroke-linejoin="round" stroke-width="4.96683"/>
</g>
</svg>
