<?xml version="1.0" encoding="UTF-8" standalone="no"?>
<!DOCTYPE svg PUBLIC "-//W3C//DTD SVG 1.1//EN" "http://www.w3.org/Graphics/SVG/1.1/DTD/svg11.dtd">
<!-- Created with Vectornator (http://vectornator.io/) -->
<svg height="100%" stroke-miterlimit="10" style="fill-rule:nonzero;clip-rule:evenodd;stroke-linecap:round;stroke-linejoin:round;" version="1.1" viewBox="0 0 1701 2384.24" width="100%" xml:space="preserve" xmlns="http://www.w3.org/2000/svg" xmlns:vectornator="http://vectornator.io" xmlns:xlink="http://www.w3.org/1999/xlink">
<defs/>
<clipPath id="ArtboardFrame">
<rect height="2384.24" width="1701" x="0" y="0"/>
</clipPath>
<g clip-path="url(#ArtboardFrame)" id="Layer-1" vectornator:layerName="Layer 1">
<path d="M226.091 411.075C226.091 258.965 354.002 135.655 511.788 135.655C669.575 135.655 797.486 258.965 797.486 411.075C797.486 563.185 669.575 686.495 511.788 686.495C354.002 686.495 226.091 563.185 226.091 411.075Z" fill="#ff8484" fill-opacity="0.963865" fill-rule="nonzero" opacity="0.844932" stroke="#160a0a" stroke-linecap="butt" stroke-linejoin="round" stroke-width="39.7971"/>
<path d="M381.079 531.569L640.663 308.606M399.39 303.22L639.586 542.34" fill="none" opacity="0.844932" stroke="#160a0a" stroke-linecap="butt" stroke-linejoin="round" stroke-width="39.7971"/>
<path d="M544.674 1969.05C543.989 1970.42 541.249 1972.47 542.619 1973.16C545.683 1974.69 549.715 1974.43 552.896 1973.16C556.969 1971.53 559.603 1967.49 563.173 1964.94C575.026 1956.47 586.676 1947.3 596.059 1936.16C598.85 1932.85 600.707 1928.13 600.17 1923.83C599.629 1919.51 575.926 1916.32 571.394 1919.72C553.802 1932.91 545.446 1967.01 546.73 1987.55C547 1991.87 547.777 1996.82 550.84 1999.88C553.904 2002.94 558.89 2003.33 563.173 2003.99C581.316 2006.78 598.825 1996.85 610.446 1983.44C619.296 1973.23 626.727 1961.31 631 1948.5C636.41 1932.27 627.394 1919.32 649.499 1921.78C653.64 1922.24 657.839 1922.63 661.831 1923.83C668.295 1925.77 672.019 1929.07 676.218 1934.11C689.924 1950.55 672.88 1968.02 663.886 1983.44C661.873 1986.89 659.837 1990.33 657.72 1993.71C657.587 1993.93 649.847 2004.34 651.554 2006.05C653.492 2007.98 657.035 2006.05 659.775 2006.05C662.516 2006.05 665.273 2006.35 667.997 2006.05C671.469 2005.66 674.984 2005.17 678.274 2003.99C702.773 1995.24 724.561 1981.12 735.824 1956.72C738.417 1951.1 737.88 1944.17 737.88 1938.22C737.88 1936.16 737.477 1934.07 737.88 1932.05C738.18 1930.55 739.25 1926.57 739.935 1927.94C742.613 1933.3 737.452 1941.56 735.824 1946.44C731.153 1960.45 728.828 1976.95 727.603 1991.66C727.318 1995.07 725.703 1999.08 727.603 2001.94C729.17 2004.29 733.021 2004.34 735.824 2003.99C738.865 2003.61 741.536 2001.64 744.046 1999.88C748.429 1996.81 752.749 1993.53 756.378 1989.6C771.464 1973.26 775.776 1949.65 791.319 1934.11C792.403 1933.02 789.867 1936.81 789.264 1938.22C787.811 1941.61 786.414 1945.03 785.153 1948.5C780.613 1960.98 776.53 1974.32 774.876 1987.55C774.381 1991.51 777.048 1997.82 781.043 1997.82C792.71 1997.82 800.533 1984.37 807.762 1975.22C812.944 1968.65 817.07 1961.3 822.15 1954.66C825.987 1949.64 830.604 1945.26 834.482 1940.27C835.423 1939.06 836.538 1934.63 836.538 1936.16C836.538 1945.69 829.044 1954.53 826.261 1962.88C824.943 1966.84 825.023 1971.13 824.205 1975.22C823.651 1977.99 819.527 1984.49 822.15 1983.44C827.548 1981.28 830.371 1975.22 834.482 1971.1C842.063 1963.52 848.201 1956.48 857.091 1950.55C859.641 1948.85 862.572 1947.81 865.313 1946.44C866.683 1945.75 867.97 1943.9 869.424 1944.38C874.664 1946.13 869.351 1955.67 867.368 1960.83C865.495 1965.7 863.209 1970.4 861.202 1975.22C859.783 1978.62 856.197 1981.91 857.091 1985.49C857.617 1987.59 861.726 1984.97 863.258 1983.44C867.425 1979.27 869.853 1973.65 873.534 1969.05C884.927 1954.81 898.777 1940.08 916.697 1934.11C918.647 1933.46 921.025 1933.19 922.863 1934.11C927.804 1936.58 925.759 1945.09 924.919 1950.55C923.099 1962.38 915.882 1972.73 910.531 1983.44C908.881 1986.74 905.05 1990.29 906.42 1993.71C907.438 1996.26 911.948 1994.22 914.642 1993.71C930.648 1990.71 946.658 1984.75 959.86 1975.22C980.334 1960.43 994.852 1940.03 1009.19 1919.72C1012.59 1914.91 1016.09 1910.16 1019.47 1905.33C1020.88 1903.31 1023.58 1901.64 1023.58 1899.17C1023.58 1897.63 1020.78 1900.43 1019.47 1901.22C1013.92 1904.55 1008.24 1907.68 1003.02 1911.5C997.929 1915.23 993.277 1919.55 988.635 1923.83C978.706 1933 969.993 1945.4 968.082 1958.77C967.108 1965.59 966.721 1973.35 970.137 1979.33C972.878 1984.12 979.052 1986.8 984.525 1987.55C994.73 1988.94 1005.36 1987.99 1015.36 1985.49C1031.42 1981.48 1046.38 1973.46 1060.57 1964.94M411.075 2047.15C411.075 2023.1 413.429 1998.19 421.352 1975.22C432.096 1944.06 441.554 1912.2 456.293 1882.72C463.71 1867.89 475.917 1855.9 487.124 1843.67C491.106 1839.33 496.16 1835.86 501.512 1833.39C510.246 1829.36 523.004 1831.04 526.176 1841.62C535.8 1873.7 504.683 1900.66 478.902 1913.55C471.498 1917.26 463.98 1920.76 456.293 1923.83C453.67 1924.88 447.178 1923.21 448.072 1925.89C449.238 1929.39 455.185 1928.1 458.349 1930C462.11 1932.25 465.951 1934.74 468.626 1938.22C472.926 1943.81 475.314 1950.64 478.902 1956.72C484.223 1965.72 490.157 1974.36 495.345 1983.44C499.309 1990.37 502.028 1998.34 507.678 2003.99" fill="#fcfcfc" fill-opacity="0.0131995" fill-rule="nonzero" opacity="0.844932" stroke="#160a0a" stroke-linecap="butt" stroke-linejoin="round" stroke-width="23.6946"/>
<path d="M535.588 1030.06C534.133 1030.84 531.12 1030.88 531.223 1032.41C531.314 1033.78 534.234 1032.31 535.725 1032.11C544.698 1030.92 554.117 1031.23 562.6 1028.25C571.428 1025.16 579.555 1020.13 586.539 1014.29C591.012 1010.55 598.931 997.888 594.033 991.128C589.473 984.834 561.513 988.467 555.628 991.638C541.6 999.197 533.873 1021.31 531.36 1034.46C526.852 1058.05 531.956 1079.75 563.506 1075.57C588.255 1072.29 604.133 1049.92 619.563 1034.74C636.771 1017.81 646.052 1008.89 659.452 988.81C664.033 981.944 668.149 974.791 671.586 967.399C672.8 964.785 675.609 960.892 673.288 959.045C671.258 957.43 668.605 961.728 666.809 963.598C665.013 965.469 664.157 967.941 662.719 970.052C660.724 972.979 657.988 975.538 656.514 978.707C645.745 1001.87 638.748 1027.02 638.807 1051.99C638.816 1056.1 637.604 1060.64 639.63 1064.3C640.863 1066.52 656.092 1066.3 660.027 1064.99C666.368 1062.88 672.316 1059.56 677.487 1055.58C700.938 1037.54 717.712 1001.09 733.325 977.687C737.259 971.791 750.333 956.463 751.663 947.62C751.892 946.099 748.413 948.812 747.298 949.972C745.502 951.843 744.502 954.24 743.208 956.426C738.711 964.023 734.903 971.946 731.211 979.889C721.869 999.986 713.331 1016.8 714.794 1038.67C714.913 1040.44 713.897 1050.45 718.006 1052.87C726.956 1058.15 743.774 1053.15 751.635 1048.56C775.409 1034.69 781.646 1007.44 797.315 987.825C800.464 983.884 804.362 980.487 807.885 976.818C809.294 975.35 812.112 972.415 812.112 972.415C812.112 972.415 807.642 978.01 805.908 981.07C803.687 984.989 799.811 988.008 797.59 991.926C794.3 997.732 794.097 1004.58 792.072 1010.84C789.919 1017.49 785.592 1027.25 784.577 1034C784.343 1035.56 783.939 1051.65 788.063 1052.3C795.425 1053.47 806.125 1037.88 809.476 1034.39C822.132 1021.21 830.305 1007.58 840.635 993.166C843.138 989.674 854.631 974.701 859.934 977.455C879.55 987.642 862.822 1022.85 857.023 1035.33C855.046 1039.58 854.435 1044.6 851.093 1048.09C848.41 1050.88 853.162 1040.88 854.909 1037.53C859.52 1028.69 867.212 1021.46 873.659 1013.62C887.561 996.707 902.444 978.73 927.74 977.037C931.525 976.784 941.651 977.045 943.909 982.135C947.842 991 930.345 1023.57 927.08 1034.76C926.016 1038.41 924.436 1046.58 925.653 1047.22C927.602 1048.23 930.255 1047.41 932.406 1046.76C939.207 1044.73 945.998 1042.45 952.254 1039.26C973.528 1028.4 992.775 1011.44 1008.04 994.324C1012.44 989.39 1016.85 984.434 1020.58 979.064C1022.39 976.46 1024.74 973.617 1024.54 970.56C1024.37 968.095 1022.17 965.513 1019.62 964.709C998.618 958.086 982.689 987.222 983.687 1002.13C984.69 1017.13 996.883 1023.59 1004.03 1035.79C1011.34 1048.28 1015.22 1064.46 1011.41 1078.56C1007.38 1093.48 999.859 1107.61 991.646 1121.08C989.797 1124.11 984.255 1131.1 978.552 1128.13C968.84 1123.09 967.929 1110.56 970.015 1101.93C972.19 1092.92 976.384 1084.19 981.874 1076.41C1009.63 1037.1 1059.31 1013.72 1095.42 982.297M632.301 988.567C686.719 972.284 736.335 968.136 793.829 969.518M820.623 930.646C821.282 929.229 821.941 927.811 822.6 926.394M825.164 911.734C824.712 911.705 824.279 911.735 823.89 911.882C820.94 912.998 822.039 919.625 822.279 921.511C820.78 921.049 819.191 920.709 817.672 920.535C816.092 920.355 820.593 922.089 821.277 923.395C821.584 923.978 821.892 924.233 822.205 924.617C822.004 927.395 821.548 930.248 823.018 932.549C823.768 933.722 831.709 928.906 826.994 924.108C828.882 921.335 829.908 916.305 828.517 913.639C827.979 912.606 826.519 911.821 825.164 911.734ZM556.242 918.813C542.319 907.312 518.483 912.865 503.401 919.278C464.359 935.878 434 956.413 416.054 996.156C414.892 998.73 412.838 1000.95 412.203 1003.7C409.774 1014.23 429.187 1014.34 434.85 1015.26C453.014 1018.19 472.716 1015.55 490.311 1021.73C492.355 1022.44 494.513 1023.42 495.857 1025.12C503.759 1035.1 496.806 1043.51 491.853 1051.61C480.575 1070.07 460.352 1083.3 441.786 1094.91C437.249 1097.74 432.661 1100.89 427.459 1102.15" fill="#fcfcfc" fill-opacity="0.0131995" fill-rule="nonzero" opacity="0.844932" stroke="#160a0a" stroke-linecap="butt" stroke-linejoin="round" stroke-width="25.1136"/>
<path d="M588.024 1377.48C575.186 1364.78 550.948 1368.17 535.353 1373.21C494.982 1386.25 462.907 1403.98 441.475 1441.96C440.086 1444.42 437.842 1446.45 436.963 1449.14C433.602 1459.4 452.927 1461.25 458.485 1462.67C476.314 1467.22 496.173 1466.35 513.144 1474.08C515.116 1474.97 517.178 1476.14 518.365 1477.95C525.341 1488.6 517.663 1496.35 512.004 1503.98C499.12 1521.35 477.794 1532.72 458.264 1542.62C453.49 1545.04 448.639 1547.76 443.346 1548.55" fill="#fcfcfc" fill-opacity="0.0131995" fill-rule="nonzero" opacity="0.844932" stroke="#160a0a" stroke-linecap="butt" stroke-linejoin="round" stroke-width="25.1136"/>
<path d="M528.417 1543.33C527.701 1544.68 525.615 1546.01 526.268 1547.39C527.76 1550.55 535.147 1544.46 542.895 1539.55C555.815 1531.35 561.212 1525.23 572.272 1513.49C588.656 1496.1 602.697 1474.18 616.784 1454.89C625.068 1443.54 640.01 1428.12 640.372 1412.25C640.407 1410.72 638.94 1414.96 638.223 1416.31C636.791 1419.02 635.067 1421.6 633.926 1424.44C630.139 1433.88 627.265 1443.61 622.995 1452.97C616.778 1466.61 615.391 1479.19 611.783 1493.84C608.356 1507.75 602.434 1520.34 612.947 1532.92C618.849 1539.99 636.248 1540.61 643.629 1539.79C671.74 1536.69 703.636 1516.03 722.745 1496.37C727.52 1491.45 731.421 1485.75 735.449 1480.21C740.6 1473.12 747.831 1463.72 740.121 1455.65C730.049 1445.1 719.877 1455.31 713.221 1463.26C697.97 1481.45 689.65 1505.11 689.117 1528.49C689.054 1531.23 687.461 1534.4 688.929 1536.71C690.57 1539.3 694.08 1540.28 697.055 1541.01C726.578 1548.28 747.959 1503.59 755.95 1482.73C757.2 1479.47 757.536 1475.93 758.24 1472.51C759.078 1468.42 761.803 1464.21 760.576 1460.22C759.848 1457.86 757.35 1464.05 756.325 1466.3C752.695 1474.26 754.732 1475.9 753.849 1484.74C752.265 1500.59 738.566 1539.28 769.162 1534.43C797.461 1529.95 814.192 1494.93 817.924 1469.76C818.828 1463.66 819.417 1457.34 818.346 1451.26C818.115 1449.95 813.082 1441.78 814.471 1440.9C818.796 1438.15 829.094 1448.54 830.722 1449.49C833.905 1451.36 837.579 1452.23 840.902 1453.83C848.125 1457.32 855.584 1460.45 863.318 1462.57C865.407 1463.14 868.958 1462.65 869.435 1464.77C869.98 1467.17 866.602 1468.81 865.185 1470.84C863.768 1472.86 862.416 1474.93 860.935 1476.91C858.881 1479.65 856.314 1482.03 854.583 1484.99C848.468 1495.42 843.483 1506.91 837.393 1517.49C835.401 1520.95 829.818 1523.8 830.994 1527.62C832.023 1530.96 837.754 1529.48 841.222 1529.91C853.927 1531.47 865.136 1531.62 876.295 1524.54C898.524 1510.45 921.673 1481.16 935.378 1458.05C940.381 1449.61 944.129 1440.49 948.317 1431.62C949.242 1429.66 952.678 1425.55 950.512 1425.5C946.901 1425.42 944.332 1438.87 944.019 1439.74C941.092 1447.9 937.661 1455.89 935.237 1464.21C930.091 1481.88 926.408 1496.87 929.955 1515.49C930.529 1518.5 931.408 1521.99 933.877 1523.8C938.595 1527.27 944.323 1530.21 950.175 1530.34C959.007 1530.54 977.014 1518.57 983.428 1514.65C992.011 1509.41 999.673 1505.56 1004.4 1496.63" fill="#fcfcfc" fill-opacity="0.0131995" fill-rule="nonzero" opacity="0.844932" stroke="#160a0a" stroke-linecap="butt" stroke-linejoin="round" stroke-width="25.1136"/>
<path d="M571.718 1447.69C586.396 1452.96 597.998 1448.7 612.862 1446.57C626.144 1444.67 640.594 1443.09 654.052 1443.4" fill="#fcfcfc" fill-opacity="0.0131995" fill-rule="nonzero" opacity="0.844932" stroke="#160a0a" stroke-linecap="butt" stroke-linejoin="round" stroke-width="25.1136"/>
<path d="M898.625 1446.93C916.801 1453.45 937.894 1446.46 956.255 1444.13C966.473 1442.84 976.827 1442.55 987.124 1442.78" fill="#fcfcfc" fill-opacity="0.0131995" fill-rule="nonzero" opacity="0.844932" stroke="#160a0a" stroke-linecap="butt" stroke-linejoin="round" stroke-width="25.1136"/>
<path d="M528.417 1543.33L534.629 1541.42L540.887 1537.45L545.043 1535.49L545.043 1535.49" fill="#fcfcfc" fill-opacity="0.0131995" fill-rule="nonzero" opacity="0.844932" stroke="#160a0a" stroke-linecap="butt" stroke-linejoin="round" stroke-width="25.1136"/>
<path d="M292.79 859.147L729.658 859.147L1172.69 859.147C1174.34 859.147 1175.67 860.482 1175.67 862.129L1175.67 1162.42C1175.67 1164.06 1174.34 1165.4 1172.69 1165.4L292.79 1165.4C291.143 1165.4 289.808 1164.06 289.808 1162.42L289.808 871.479C289.808 869.832 291.143 859.147 292.79 859.147Z" fill="#fcfcfc" fill-opacity="0.0131995" fill-rule="nonzero" opacity="0.844932" stroke="#160a0a" stroke-linecap="butt" stroke-linejoin="round" stroke-width="25.1136"/>
<path d="M284.568 1311.33L721.437 1311.33L1164.47 1311.33C1166.12 1311.33 1167.45 1312.66 1167.45 1314.31L1167.45 1614.6C1167.45 1616.24 1166.12 1617.58 1164.47 1617.58L284.568 1617.58C282.922 1617.58 281.586 1616.24 281.586 1614.6L281.586 1323.66C281.586 1322.01 282.922 1311.33 284.568 1311.33Z" fill="#fcfcfc" fill-opacity="0.0131995" fill-rule="nonzero" opacity="0.844932" stroke="#160a0a" stroke-linecap="butt" stroke-linejoin="round" stroke-width="25.1136"/>
<path d="M294.845 1773.79L731.713 1773.79L1174.75 1773.79C1176.39 1773.79 1177.73 1775.12 1177.73 1776.77L1177.73 2077.06C1177.73 2078.7 1176.39 2080.04 1174.75 2080.04L294.845 2080.04C293.198 2080.04 291.863 2078.7 291.863 2077.06L291.863 1786.12C291.863 1784.47 293.198 1773.79 294.845 1773.79Z" fill="#fcfcfc" fill-opacity="0.0131995" fill-rule="nonzero" opacity="0.844932" stroke="#160a0a" stroke-linecap="butt" stroke-linejoin="round" stroke-width="25.1136"/>
<path d="M2069.76 12.3323C2067.71 8.2215 2065.65 4.11075 2063.6 0" fill="none" opacity="0.844932" stroke="#160a0a" stroke-linecap="butt" stroke-linejoin="round" stroke-width="52.0368"/>
<path d="M2071.82 1541.53C2071.13 1542.9 2070.45 1544.27 2069.76 1545.64" fill="none" opacity="0.844932" stroke="#160a0a" stroke-linecap="butt" stroke-linejoin="round" stroke-width="17.0668"/>
<path d="M1165.4 184.984C1144.02 184.984 1126.64 199.825 1114.01 215.814C1109.64 221.351 1105.04 227.38 1103.74 234.313C1102.82 239.215 1103.86 245.708 1107.85 248.7C1113.44 252.893 1121.51 251.662 1128.4 252.811C1135.87 254.055 1153.14 254.068 1159.23 261.033C1161.49 263.611 1161.07 268.419 1159.23 271.31C1155.84 276.639 1149.83 279.764 1144.84 283.642C1131.5 294.023 1116.93 304.79 1101.68 312.417" fill="none" opacity="0.844932" stroke="#160a0a" stroke-linecap="butt" stroke-linejoin="round" stroke-width="17.0668"/>
<path d="M1163.34 254.867C1184.82 238.159 1208.93 219.925 1237.34 219.925" fill="none" opacity="0.844932" stroke="#160a0a" stroke-linecap="butt" stroke-linejoin="round" stroke-width="17.0668"/>
<path d="M1214.73 205.538C1213.36 206.223 1211.18 206.17 1210.62 207.593C1209.6 210.137 1210.89 213.087 1210.62 215.814C1209.52 226.807 1208.14 237.775 1206.51 248.7C1204.55 261.733 1199.61 274.594 1200.34 287.753C1200.63 292.962 1209.51 293.919 1214.73 293.919" fill="none" opacity="0.844932" stroke="#160a0a" stroke-linecap="butt" stroke-linejoin="round" stroke-width="17.0668"/>
<path d="M1288.72 213.759C1283.92 213.759 1278.62 211.614 1274.33 213.759C1260.26 220.794 1255.56 233.983 1251.72 248.7C1249.81 256.023 1249.67 263.742 1249.67 271.31C1249.67 274.803 1248.45 280.36 1251.72 281.586C1256.39 283.338 1262.16 280.517 1266.11 277.476C1271.54 273.298 1274.51 266.645 1278.44 261.033C1288.64 246.472 1297.49 230.621 1303.11 213.759C1304 211.079 1306.43 208.064 1305.16 205.538C1304.3 203.804 1302.01 207.966 1301.05 209.648C1299.22 212.852 1297.96 216.378 1296.94 219.925C1295.21 225.999 1293.61 232.156 1292.83 238.424C1292.24 243.182 1292.49 248.027 1292.83 252.811C1293.18 257.643 1291.91 263.375 1294.89 267.199C1297.55 270.619 1302.91 270.831 1307.22 271.31C1309.37 271.549 1311.33 269.939 1313.38 269.254" fill="none" opacity="0.844932" stroke="#160a0a" stroke-linecap="butt" stroke-linejoin="round" stroke-width="17.0668"/>
<path d="M1338.05 203.482C1340.06 213.559 1339.18 224.099 1338.05 234.313C1336.75 245.968 1335.46 257.625 1333.94 269.254C1333.4 273.387 1330.66 285.57 1331.88 281.586C1337.32 263.926 1339.05 242.137 1350.38 226.091C1355.14 219.351 1359.96 212.169 1366.82 207.593C1370.34 205.247 1381.84 205.538 1387.38 205.538" fill="none" opacity="0.844932" stroke="#160a0a" stroke-linecap="butt" stroke-linejoin="round" stroke-width="17.0668"/>
<path d="M1391.49 191.15C1399.3 191.15 1406.66 187.365 1414.1 184.984C1430.73 179.66 1448.02 174.707 1465.48 174.707" fill="none" opacity="0.844932" stroke="#160a0a" stroke-linecap="butt" stroke-linejoin="round" stroke-width="17.0668"/>
<path d="M1436.71 164.43C1430.79 176.265 1425.29 188.534 1422.32 201.427C1418.09 219.758 1410.94 238.141 1412.04 256.922C1412.44 263.693 1419.68 271.984 1426.43 271.31C1437.21 270.232 1444.98 259.919 1453.15 252.811C1460.84 246.128 1466.85 237.738 1473.7 230.202" fill="none" opacity="0.844932" stroke="#160a0a" stroke-linecap="butt" stroke-linejoin="round" stroke-width="17.0668"/>
<path d="M1142.79 411.075C1142.79 409.705 1144.14 406.77 1142.79 406.964C1137.62 407.702 1132.26 409.621 1128.4 413.13C1116.91 423.579 1107.63 436.237 1097.57 448.072C1095.97 449.954 1094.48 451.989 1093.46 454.238C1091.04 459.567 1086.71 464.856 1087.29 470.681C1087.6 473.73 1092.54 474.049 1095.51 474.792C1106.17 477.455 1117.57 475.041 1128.4 476.847C1131.42 477.351 1135.78 478.012 1136.62 480.958C1137.64 484.505 1134.56 488.165 1132.51 491.235C1129.01 496.49 1124.49 501.005 1120.18 505.622C1111.91 514.483 1104.3 524.866 1093.46 530.287C1092.09 530.972 1094.83 527.546 1095.51 526.176" fill="none" opacity="0.844932" stroke="#160a0a" stroke-linecap="butt" stroke-linejoin="round" stroke-width="17.0668"/>
<path d="M1161.29 485.069C1177.43 485.069 1191.23 475.679 1202.39 464.515C1208.68 458.226 1211.49 448.949 1204.45 441.906C1198.08 435.535 1182.48 442.639 1177.73 448.072C1165.71 461.804 1159.29 485.609 1161.29 503.567C1161.86 508.753 1163.38 514.695 1167.45 517.955C1171.24 520.981 1177.24 521.542 1181.84 520.01C1190.32 517.185 1197.3 510.982 1204.45 505.622C1208.33 502.716 1211.3 498.771 1214.73 495.345" fill="none" opacity="0.844932" stroke="#160a0a" stroke-linecap="butt" stroke-linejoin="round" stroke-width="17.0668"/>
<path d="M1218.84 454.238C1241.8 449.646 1263.96 443.47 1286.66 437.795" fill="none" opacity="0.844932" stroke="#160a0a" stroke-linecap="butt" stroke-linejoin="round" stroke-width="17.0668"/>
<path d="M1259.94 415.186C1257.49 427.445 1255.45 439.793 1253.78 452.183C1251.56 468.604 1247.61 484.941 1247.61 501.512C1247.61 506.107 1249.32 512.729 1253.78 513.844C1260.08 515.42 1267.13 511.652 1272.28 507.678C1282.63 499.674 1290.09 488.494 1299 478.902" fill="none" opacity="0.844932" stroke="#160a0a" stroke-linecap="butt" stroke-linejoin="round" stroke-width="17.0668"/>
<path d="M1290.78 446.016C1310.61 436.098 1331.46 430.401 1352.44 423.407" fill="none" opacity="0.844932" stroke="#160a0a" stroke-linecap="butt" stroke-linejoin="round" stroke-width="17.0668"/>
<path d="M1329.83 413.13C1326.22 418.538 1324.85 425.238 1323.66 431.629C1320.99 446.03 1317.63 460.311 1315.44 474.792C1314.2 482.949 1311.86 491.347 1313.38 499.456C1314.1 503.265 1317.79 506.984 1321.61 507.678C1326.51 508.57 1331.88 506.383 1335.99 503.567C1345.2 497.269 1352.44 488.494 1360.66 480.958" fill="none" opacity="0.844932" stroke="#160a0a" stroke-linecap="butt" stroke-linejoin="round" stroke-width="17.0668"/>
<path d="M1379.16 431.629C1371.12 431.629 1375.05 443.066 1375.05 450.127C1375.05 456.978 1375.43 463.84 1375.05 470.681C1374.74 476.196 1372.53 481.619 1372.99 487.124C1373.24 490.177 1374.06 494.965 1377.1 495.345C1381.66 495.915 1385.69 491.851 1389.43 489.179C1390.68 488.289 1390.8 486.439 1391.49 485.069" fill="none" opacity="0.844932" stroke="#160a0a" stroke-linecap="butt" stroke-linejoin="round" stroke-width="17.0668"/>
<path d="M1397.66 394.632C1397.65 390.942 1397.23 384.355 1393.54 384.355C1390.05 384.355 1391.49 391.139 1391.49 394.632C1391.49 396.799 1391.38 400.798 1393.54 400.798C1396.01 400.798 1397.66 397.102 1397.66 394.632Z" fill="none" opacity="0.844932" stroke="#160a0a" stroke-linecap="butt" stroke-linejoin="round" stroke-width="17.0668"/>
<path d="M1426.43 417.241C1426.43 441.516 1418.4 465.494 1414.1 489.179C1413.32 493.442 1416.47 480.817 1418.21 476.847C1421.28 469.829 1424.69 462.944 1428.49 456.293C1432.92 448.537 1438.04 441.198 1442.87 433.684C1446.29 428.371 1450.94 421.352 1457.26 421.352C1460.69 421.352 1464.06 424.399 1465.48 427.518C1467.77 432.547 1467.21 438.447 1467.54 443.961C1467.9 450.116 1467.54 456.293 1467.54 462.459C1467.54 467.255 1466.16 472.253 1467.54 476.847C1468.37 479.631 1470.83 483.424 1473.7 483.013C1477.54 482.465 1479.18 477.532 1481.93 474.792" fill="none" opacity="0.844932" stroke="#160a0a" stroke-linecap="butt" stroke-linejoin="round" stroke-width="17.0668"/>
<path d="M1529.2 413.13C1504.63 388.557 1496.1 426.533 1492.2 446.016C1491.12 451.433 1487.9 457.412 1490.15 462.459C1491.57 465.652 1497.08 465.519 1500.42 464.515C1504.63 463.254 1507.6 459.395 1510.7 456.293C1520.26 446.738 1526.24 433.898 1531.25 421.352C1532.62 417.926 1534.35 414.623 1535.37 411.075C1535.74 409.757 1535.37 405.594 1535.37 406.964C1535.37 415.897 1533.73 424.761 1533.31 433.684C1532.11 458.898 1532.13 482.727 1527.14 507.678C1525.9 513.872 1525.3 520.28 1523.03 526.176C1520.83 531.895 1512.07 537.138 1506.59 534.398C1496.15 529.18 1489.77 517.808 1483.98 507.678" fill="none" opacity="0.844932" stroke="#160a0a" stroke-linecap="butt" stroke-linejoin="round" stroke-width="17.0668"/>
<path d="M1095.51 754.323C1094.14 754.323 1092.23 755.419 1091.4 754.323C1089.71 752.063 1089.5 748.922 1089.35 746.101C1088.81 735.838 1088.12 725.474 1089.35 715.271C1092.25 691.115 1095.44 666.848 1101.68 643.332C1104.43 632.967 1108.73 622.381 1116.07 614.557C1119.93 610.435 1126.88 610.013 1132.51 610.446C1141.66 611.15 1146.83 622.044 1148.95 628.945C1152.23 639.605 1148.98 652.551 1142.79 661.831C1134.75 673.888 1110.39 685.287 1095.51 680.329C1094.06 679.845 1098.15 677.853 1099.63 678.274C1103.47 679.371 1106.48 682.384 1109.9 684.44" fill="none" opacity="0.844932" stroke="#160a0a" stroke-linecap="butt" stroke-linejoin="round" stroke-width="17.0668"/>
<path d="M1122.23 686.495C1122.23 700.463 1136.62 711.312 1144.84 721.437C1149.77 727.499 1154.44 733.769 1159.23 739.935" fill="none" opacity="0.844932" stroke="#160a0a" stroke-linecap="butt" stroke-linejoin="round" stroke-width="17.0668"/>
<path d="M1173.62 700.883C1173.62 702.253 1172.27 705.219 1173.62 704.994C1178.15 704.238 1182.23 701.531 1185.95 698.828C1189.87 695.978 1193.15 692.29 1196.23 688.551C1202.76 680.618 1210.35 673.185 1214.73 663.886C1216.21 660.725 1215.14 656.08 1212.67 653.609C1210.2 651.139 1205.83 650.929 1202.39 651.554C1193.48 653.174 1183.45 662.268 1179.79 670.052C1173.88 682.604 1171.46 701.568 1173.62 715.271C1174.53 721.053 1175.1 728.201 1179.79 731.714C1184.75 735.436 1192.31 735.429 1198.28 733.769C1205.42 731.785 1211.54 726.677 1216.78 721.437C1226.77 711.449 1233.51 698.538 1243.5 688.551" fill="none" opacity="0.844932" stroke="#160a0a" stroke-linecap="butt" stroke-linejoin="round" stroke-width="17.0668"/>
<path d="M1270.22 647.443C1267.09 645.877 1265.13 643.528 1262 647.443C1257.37 653.23 1253.3 659.482 1249.67 665.942C1247.11 670.489 1245.37 675.459 1243.5 680.329C1241.95 684.373 1238.85 688.362 1239.39 692.661C1239.7 695.113 1243.1 696.548 1245.56 696.772C1251.06 697.272 1256.6 695.874 1262 694.717C1266.24 693.809 1270.37 692.366 1274.33 690.606C1276.59 689.603 1278.16 685.714 1280.5 686.495C1282.45 687.145 1281.42 690.823 1280.5 692.661C1278.54 696.585 1274.91 699.429 1272.28 702.938C1268.74 707.653 1265.47 712.559 1262 717.326C1259.99 720.096 1257.89 722.807 1255.83 725.547" fill="none" opacity="0.844932" stroke="#160a0a" stroke-linecap="butt" stroke-linejoin="round" stroke-width="17.0668"/>
<path d="M1313.38 663.886C1307.64 666.758 1309.64 664.227 1309.27 670.052C1308.67 679.65 1307.64 689.22 1307.22 698.828C1306.95 704.988 1305.27 711.476 1307.22 717.326C1308.3 720.576 1312.38 725.024 1315.44 723.492C1322.82 719.802 1327.45 711.954 1331.88 704.994C1341.26 690.257 1345.83 672.886 1354.49 657.72C1355.57 655.839 1353.03 661.803 1352.44 663.886C1351.66 666.602 1350.85 669.321 1350.38 672.108C1349.36 678.227 1348.77 684.418 1348.33 690.606C1346.79 712.141 1349.28 715.271 1370.94 715.271" fill="none" opacity="0.844932" stroke="#160a0a" stroke-linecap="butt" stroke-linejoin="round" stroke-width="17.0668"/>
<path d="M1391.49 676.218C1391.49 682.384 1391.8 688.558 1391.49 694.717C1391.11 702.275 1389.91 709.773 1389.43 717.326C1389.22 720.745 1387.9 730.667 1389.43 727.603C1392.93 720.616 1393.03 712.372 1395.6 704.994C1398.53 696.581 1402.19 688.437 1405.88 680.329C1409.05 673.356 1410.34 664.76 1416.15 659.775C1418.48 657.781 1419.6 665.006 1420.26 667.997C1421.01 671.341 1420.26 674.848 1420.26 678.274C1420.26 689.321 1418.32 700.327 1416.15 711.16C1415.88 712.503 1416.15 715.271 1416.15 715.271C1416.15 715.271 1415.61 712.419 1416.15 711.16C1419.77 702.711 1423.48 694.202 1428.49 686.495C1432.45 680.389 1437.93 675.404 1442.87 670.052C1447.26 665.303 1454.15 655.897 1459.32 659.775C1461.05 661.075 1460.98 663.81 1461.37 665.942C1462.36 671.376 1463.1 676.87 1463.43 682.385C1463.79 688.54 1463.43 694.717 1463.43 700.883C1463.43 705.679 1460.04 711.879 1463.43 715.271C1466.37 718.217 1471.86 714.678 1475.76 713.215C1477.57 712.535 1478.5 710.475 1479.87 709.104C1483.98 704.994 1488.39 701.165 1492.2 696.772C1501.54 685.999 1509.12 673.8 1516.87 661.831C1520.89 655.609 1527.07 650.431 1529.2 643.332C1529.82 641.257 1525.04 640.472 1523.03 641.277C1517.56 643.466 1513.36 648.018 1508.65 651.554C1500.08 657.975 1490.96 665.907 1488.09 676.218C1486.26 682.82 1486.81 690.042 1488.09 696.772C1489.59 704.65 1490.45 713.91 1496.31 719.381C1502.02 724.711 1511.14 726.255 1518.92 725.547C1527.17 724.798 1534.71 719.96 1541.53 715.271C1545.94 712.239 1548.38 707.049 1551.81 702.938" fill="none" opacity="0.844932" stroke="#160a0a" stroke-linecap="butt" stroke-linejoin="round" stroke-width="17.0668"/>
</g>
</svg>
